<svg width="146" height="34" viewBox="0 0 146 34" fill="none" xmlns="http://www.w3.org/2000/svg">
<g clip-path="url(#clip0_232_11180)">
<path d="M-2.09725e-05 24.7158L4.72006 6.7081C5.00446 5.80713 5.34383 5.10794 5.74056 4.60583C6.13728 4.1225 6.9403 3.88318 8.14959 3.88318H13.8041C14.5307 3.88318 15.0947 3.9348 15.4914 4.03569C15.9359 4.14596 16.2562 4.33836 16.4546 4.60583C16.6434 4.92962 16.7246 5.3848 16.6959 5.96903C16.6386 6.4899 16.4832 7.1844 16.2275 8.05722L11.9902 24.7557H6.632L8.85701 16.4335H7.39677L5.29842 24.7557L-0.00241089 24.7135L-2.09725e-05 24.7158ZM8.63236 12.2195H9.92291L10.9721 8.05956H9.55486L8.63236 12.2195Z" fill="#211655"/>
<path d="M13.7779 24.7158L19.2078 3.8855H28.1365C29.1474 3.8855 29.8716 4.21398 30.3041 4.87328C30.7391 5.5232 30.8108 6.39602 30.5168 7.48939L29.3553 11.8183C29.157 12.5785 28.6647 13.1768 27.8808 13.6132C27.03 13.9933 26.2652 14.235 25.5841 14.3358C25.8398 14.4203 26.1505 14.5306 26.5185 14.669C26.822 14.7535 27.1136 14.9013 27.398 15.1148C27.6346 15.3377 27.8378 15.6263 28.0074 15.9782C28.1198 16.302 28.0935 16.7244 27.9214 17.2452L26.7169 21.7266C26.5568 22.3296 26.4038 22.8341 26.2628 23.2423C26.0931 23.6224 25.8661 23.9204 25.5817 24.1339C25.3164 24.385 24.9531 24.5516 24.4895 24.6337C24.0258 24.7252 23.4355 24.7533 22.7185 24.7182H13.7755L13.7779 24.7158ZM21.2894 16.4217L20.1828 20.5817H21.7148L22.8476 16.4217H21.2894ZM23.457 8.05954L22.3792 12.2195H23.8394L24.9722 8.05954H23.4546H23.457Z" fill="#211655"/>
<path d="M32.3882 7.01548C32.6056 6.01362 32.9546 5.22996 33.4373 4.6645C33.8627 4.15536 34.6562 3.909 35.8177 3.92777H41.955C42.7102 3.909 43.2957 3.97939 43.7116 4.13659C44.0701 4.32195 44.3162 4.56831 44.4477 4.87332C44.56 5.14315 44.5982 5.43878 44.56 5.76491C44.4835 6.14501 44.4094 6.48287 44.333 6.78085L43.5395 10.1337H38.437L38.9461 8.0455H37.1321L36.1403 12.2195H43.0137L40.674 21.8628C40.4278 22.8646 40.098 23.5967 39.6822 24.0612C39.1899 24.4976 38.3916 24.7158 37.2875 24.7158H31.2482C30.3496 24.7158 29.6565 24.4155 29.1642 23.8102C28.7196 23.2729 28.5739 22.5526 28.7244 21.6539L29.5609 18.4818H34.606L34.0683 20.5559H35.9252L36.9171 16.41H30.0437L32.3834 7.01783L32.3882 7.01548Z" fill="#211655"/>
<path d="M44.5504 24.744C43.6996 24.7722 43.0998 24.5258 42.7508 24.0073C42.3732 23.4887 42.2776 22.8623 42.4664 22.1279L46.4217 7.00141C46.6488 6.15674 47.0216 5.43878 47.5426 4.84517C48.0899 4.24218 48.8236 3.93247 49.7389 3.9137H55.8045C56.684 3.93247 57.3771 4.24218 57.8886 4.84517C58.4072 5.46694 58.5267 6.26936 58.2423 7.25246L54.6 21.5577C54.3347 22.6159 53.9428 23.4324 53.4242 24.0073C52.9605 24.5281 52.2101 24.7722 51.1705 24.744H44.5504ZM51.4525 8.05958L48.2787 20.584H49.5836L52.8148 8.05958H51.4549H51.4525Z" fill="#211655"/>
<path d="M55.5918 24.7158L60.9213 3.84326H66.3919L62.0255 20.5558H66.8029L65.7394 24.7158H55.5894H55.5918Z" fill="#211655"/>
<path d="M84.7177 3.91125L79.3452 24.7158H71.2099C69.7449 24.7158 68.8535 24.3873 68.5308 23.728C68.2201 23.078 68.2201 22.1043 68.5308 20.8068L72.7968 3.9136H78.0977L73.76 20.5558H75.3039L79.3428 3.9136H84.7154L84.7177 3.91125Z" fill="#211655"/>
<path d="M89.3112 24.7158H84.1944L88.348 8.01725H85.853L86.8591 3.91125H97.1788L96.1296 8.01725H93.5079L89.3112 24.7158Z" fill="#211655"/>
<path d="M93.7492 24.744L99.1648 3.87146H109.441L108.237 8.0455H103.361L102.327 12.2055H107.145L106.096 16.4077H101.22L100.085 20.5817H105.032L103.997 24.7417H93.7492V24.744Z" fill="#211655"/>
<path fill-rule="evenodd" clip-rule="evenodd" d="M118.179 0H142.843C145.085 0 146.444 1.80195 145.866 4.00041L140.09 25.9476C139.511 28.1484 137.2 29.948 134.961 29.948H110.297C108.055 29.948 106.695 28.1484 107.274 25.9476L113.05 4.00041C113.628 1.7996 115.937 0 118.179 0ZM111.726 22.041C111.597 22.6323 111.537 23.0992 111.559 23.4535C111.559 23.7843 111.654 24.0447 111.853 24.2277C112.046 24.392 112.376 24.5022 112.859 24.5586C113.234 24.5867 113.774 24.5867 114.477 24.5586H120.657C121.606 24.5867 122.285 24.4225 122.698 24.0588C123.083 23.681 123.396 23.0241 123.633 22.0785L125.181 16.309H119.95L118.81 20.4901H117.414L120.657 7.9891H122.053L121.075 12.1279H126.283L127.48 7.33683C127.789 6.12146 127.717 5.23925 127.268 4.69491C126.778 4.12242 125.872 3.83617 124.543 3.83617H119.144C118.475 3.86433 117.957 3.92064 117.581 4.00041C117.168 4.05673 116.855 4.19516 116.637 4.41571C116.41 4.60106 116.248 4.85446 116.143 5.1759C115.994 5.48327 115.849 5.86102 115.705 6.31385L111.731 22.0363L111.726 22.041ZM124.84 24.5445H129.686L133.099 18.3409V24.5445H138.278L137.798 14.1786L143.256 3.85025H138.362L135.066 10.0398L134.908 3.85025H129.808L129.889 14.1786L124.847 24.5445H124.84Z" fill="#9D1680"/>
</g>
<defs>
<clipPath id="clip0_232_11180">
<rect width="146" height="34" fill="white"/>
</clipPath>
</defs>
</svg>
