<svg width="39" height="30" viewBox="0 0 39 30" fill="none" xmlns="http://www.w3.org/2000/svg">
<path fill-rule="evenodd" clip-rule="evenodd" d="M11.1788 0H35.8428C38.0845 0 39.4444 1.80195 38.866 4.00041L33.0896 25.9476C32.5112 28.1484 30.2002 29.948 27.9608 29.948H3.29688C1.05514 29.948 -0.304726 28.1484 0.273634 25.9476L6.05007 4.00041C6.62843 1.7996 8.93708 0 11.1788 0ZM4.72605 22.041C4.59699 22.6323 4.53725 23.0992 4.55876 23.4535C4.55876 23.7843 4.65435 24.0447 4.85272 24.2277C5.0463 24.392 5.37611 24.5022 5.85888 24.5586C6.23409 24.5867 6.77421 24.5867 7.47685 24.5586H13.6572C14.606 24.5867 15.2847 24.4225 15.6982 24.0588C16.0829 23.681 16.396 23.0241 16.6326 22.0785L18.1813 16.309H12.9498L11.8098 20.4901H10.4141L13.6572 7.9891H15.0529L14.0754 12.1279H19.283L20.4804 7.33683C20.7887 6.12146 20.717 5.23925 20.2677 4.69491C19.7778 4.12242 18.872 3.83617 17.5432 3.83617H12.1444C11.4752 3.86433 10.9566 3.92064 10.5813 4.00041C10.1679 4.05673 9.85482 4.19516 9.63733 4.41571C9.41029 4.60106 9.24778 4.85446 9.14262 5.1759C8.99444 5.48327 8.84866 5.86102 8.70527 6.31385L4.73083 22.0363L4.72605 22.041ZM17.8395 24.5445H22.6863L26.0991 18.3409V24.5445H31.278L30.7977 14.1786L36.2562 3.85025H31.3617L28.066 10.0398L27.9082 3.85025H22.8082L22.8894 14.1786L17.8467 24.5445H17.8395Z" fill="#9D1680"/>
</svg>
