<svg width="226" height="47" viewBox="0 0 226 47" fill="none" xmlns="http://www.w3.org/2000/svg">
<g clip-path="url(#clip0_1835_85451)">
<path d="M0.00369944 38.2126L7.31008 10.376C7.75032 8.98324 8.27564 7.90241 8.88974 7.12625C9.50385 6.3791 10.7469 6.00916 12.6188 6.00916H21.3716C22.4963 6.00916 23.3693 6.08895 23.9834 6.24491C24.6715 6.41537 25.1673 6.71278 25.4743 7.12625C25.7666 7.62676 25.8923 8.33039 25.848 9.23349C25.7592 10.0387 25.5187 11.1122 25.1229 12.4615L18.5638 38.2743H10.2696L13.7138 25.4096H11.4535L8.20535 38.2743L0 38.209L0.00369944 38.2126ZM13.3661 18.8956H15.3638L16.9878 12.4651H14.794L13.3661 18.8956Z" fill="white"/>
<path d="M21.3299 38.209L29.735 6.00916H43.5561C45.1209 6.00916 46.2419 6.51693 46.9115 7.53609C47.5848 8.54075 47.6958 9.88997 47.2407 11.5801L45.4428 18.2718C45.1357 19.4469 44.3737 20.3718 43.1602 21.0464C41.8432 21.634 40.6594 22.0075 39.6051 22.1635C40.0009 22.2941 40.4819 22.4645 41.0516 22.6785C41.5214 22.8091 41.9727 23.0376 42.413 23.3676C42.7792 23.7122 43.0937 24.1583 43.3563 24.7023C43.5302 25.2029 43.4895 25.8557 43.2231 26.6609L41.3586 33.5883C41.1108 34.5204 40.874 35.3002 40.6557 35.9313C40.3931 36.5189 40.0416 36.9795 39.6014 37.3095C39.1907 37.6976 38.6284 37.9551 37.9107 38.0821C37.1931 38.2235 36.2793 38.267 35.1695 38.2126H21.3262L21.3299 38.209ZM32.9572 25.3878L31.2444 31.8184H33.6157L35.3692 25.3878H32.9572ZM36.3126 12.4615L34.6441 18.892H36.9045L38.658 12.4615H36.3089H36.3126Z" fill="white"/>
<path d="M50.1389 10.8483C50.4755 9.2996 51.0157 8.08821 51.7629 7.21412C52.4214 6.42708 53.6497 6.04625 55.4476 6.07526H64.9477C66.1168 6.04625 67.0231 6.15506 67.6668 6.39806C68.2217 6.68459 68.6028 7.06542 68.8062 7.53692C68.9801 7.95401 69.0393 8.41101 68.9801 8.91515C68.8617 9.50271 68.747 10.025 68.6287 10.4856L67.4005 15.6685H59.5022L60.2901 12.4405H57.4823L55.947 18.8928H66.5866L62.9648 33.7995C62.5838 35.3482 62.0733 36.4798 61.4296 37.1979C60.6675 37.8725 59.4319 38.2098 57.7227 38.2098H48.3743C46.9833 38.2098 45.9104 37.7456 45.1483 36.8098C44.4603 35.9793 44.2346 34.8658 44.4677 33.4767L45.7625 28.5731H53.572L52.7396 31.7793H55.6141L57.1493 25.3705H46.5097L50.1315 10.8519L50.1389 10.8483Z" fill="white"/>
<path d="M68.9653 38.2599C67.6483 38.3034 66.7198 37.9226 66.1796 37.1211C65.5951 36.3195 65.4471 35.3511 65.7394 34.2159L71.862 10.8331C72.2134 9.5274 72.7905 8.41756 73.597 7.49995C74.4442 6.56783 75.5799 6.08907 76.9968 6.06006H86.386C87.7473 6.08907 88.8202 6.56783 89.6119 7.49995C90.4146 8.46108 90.5996 9.70149 90.1594 11.2212L84.5214 33.3345C84.1108 34.9703 83.5041 36.2325 82.7013 37.1211C81.9836 37.9262 80.822 38.3034 79.2127 38.2599H68.9653ZM79.6493 12.4688L74.7364 31.8294H76.7563L81.758 12.4688H79.653H79.6493Z" fill="white"/>
<path d="M86.0545 38.2124L94.3042 5.94727H102.772L96.0134 31.7819H103.409L101.762 38.2124H86.0508H86.0545Z" fill="white"/>
<path d="M131.142 6.05005L122.825 38.21H110.232C107.965 38.21 106.585 37.7022 106.085 36.6831C105.604 35.6784 105.604 34.1732 106.085 32.1676L112.689 6.05368H120.894L114.18 31.7795H116.57L122.822 6.05368H131.138L131.142 6.05005Z" fill="white"/>
<path d="M138.253 38.21H130.332L136.762 12.3972H132.899L134.457 6.05005H150.431L148.807 12.3972H144.749L138.253 38.21Z" fill="white"/>
<path d="M145.121 38.2537L153.504 5.98853H169.412L167.547 12.4408H160L158.398 18.8714H165.856L164.232 25.3672H156.686L154.928 31.8195H162.586L160.984 38.25H145.121V38.2537Z" fill="white"/>
<path fill-rule="evenodd" clip-rule="evenodd" d="M182.936 -0.00012207H221.114C224.585 -0.00012207 226.69 2.78536 225.794 6.18379L216.853 40.1101C215.957 43.5121 212.38 46.294 208.914 46.294H170.736C167.265 46.294 165.16 43.5121 166.056 40.1101L174.997 6.18379C175.893 2.78173 179.466 -0.00012207 182.936 -0.00012207ZM172.948 34.0712C172.748 34.9852 172.656 35.707 172.689 36.2546C172.689 36.766 172.837 37.1686 173.144 37.4515C173.444 37.7054 173.954 37.8759 174.701 37.9629C175.282 38.0065 176.118 38.0065 177.206 37.9629H186.773C188.241 38.0065 189.292 37.7526 189.932 37.1904C190.528 36.6065 191.012 35.5909 191.378 34.1293L193.776 25.2107H185.678L183.913 31.6738H181.752L186.773 12.3496H188.933L187.42 18.7475H195.481L197.334 11.3413C197.812 9.46253 197.701 8.09881 197.005 7.25736C196.247 6.37239 194.845 5.9299 192.788 5.9299H184.431C183.395 5.97343 182.592 6.06047 182.011 6.18379C181.371 6.27084 180.887 6.48482 180.55 6.82576C180.199 7.11228 179.947 7.50399 179.784 8.00088C179.555 8.47601 179.329 9.05994 179.107 9.75994L172.955 34.064L172.948 34.0712ZM193.247 37.9412H200.749L206.032 28.3516V37.9412H214.049L213.305 21.9174L221.754 5.95167H214.178L209.077 15.5195L208.832 5.95167H200.938L201.064 21.9174L193.258 37.9412H193.247Z" fill="white"/>
</g>
<defs>
<clipPath id="clip0_1835_85451">
<rect width="226" height="46.2941" fill="white"/>
</clipPath>
</defs>
</svg>
