<svg width="37" height="30" viewBox="0 0 37 30" fill="none" xmlns="http://www.w3.org/2000/svg">
<path fill-rule="evenodd" clip-rule="evenodd" d="M10.4334 0.866211H33.7457C35.8645 0.866211 37.1499 2.56707 36.6032 4.64221L31.1434 25.3582C30.5967 27.4355 28.4123 29.1342 26.2957 29.1342H2.98344C0.864556 29.1342 -0.420785 27.4355 0.125878 25.3582L5.58573 4.64221C6.1324 2.56486 8.31453 0.866211 10.4334 0.866211ZM4.33428 21.6707C4.2123 22.2288 4.15583 22.6696 4.17616 23.004C4.17616 23.3162 4.26651 23.5621 4.454 23.7348C4.63698 23.8898 4.94872 23.9939 5.40502 24.0471C5.75967 24.0737 6.27019 24.0737 6.93432 24.0471H12.7759C13.6727 24.0737 14.3143 23.9186 14.7051 23.5754C15.0688 23.2188 15.3647 22.5987 15.5883 21.7062L17.0521 16.2603H12.1073L11.0298 20.2069H9.71056L12.7759 8.40714H14.0952L13.1712 12.3138H18.0935L19.2252 7.79146C19.5166 6.64427 19.4488 5.81155 19.0242 5.29775C18.5611 4.75737 17.7049 4.48718 16.449 4.48718H11.346C10.7135 4.51376 10.2233 4.56691 9.86868 4.64221C9.47788 4.69536 9.18196 4.82603 8.9764 5.03421C8.7618 5.20916 8.60819 5.44835 8.5088 5.75176C8.36874 6.04188 8.23095 6.39844 8.09542 6.82587L4.3388 21.6663L4.33428 21.6707ZM16.7291 24.0338H21.3102L24.536 18.1782V24.0338H29.4311L28.977 14.2494L34.1364 4.50047H29.5101L26.3951 10.3428L26.246 4.50047H21.4254L21.5022 14.2494L16.7359 24.0338H16.7291Z" fill="white"/>
</svg>
