<svg width="24" height="24" viewBox="0 0 24 24" fill="none" xmlns="http://www.w3.org/2000/svg">
<g clip-path="url(#clip0_4446_957)">
<path d="M10.002 5C10.002 4.46957 10.2127 3.96086 10.5877 3.58579C10.9628 3.21071 11.4715 3 12.002 3C12.5324 3 13.0411 3.21071 13.4162 3.58579C13.7912 3.96086 14.002 4.46957 14.002 5C15.1504 5.54303 16.1294 6.38833 16.834 7.4453C17.5387 8.50227 17.9424 9.73107 18.002 11V14C18.0772 14.6217 18.2974 15.2171 18.6448 15.7381C18.9921 16.2592 19.457 16.6914 20.002 17H4.00195C4.54689 16.6914 5.01176 16.2592 5.35914 15.7381C5.70652 15.2171 5.9267 14.6217 6.00195 14V11C6.06151 9.73107 6.46525 8.50227 7.1699 7.4453C7.87455 6.38833 8.85354 5.54303 10.002 5Z" stroke="white" stroke-width="2" stroke-linecap="round" stroke-linejoin="round"/>
<path d="M9.00195 17V18C9.00195 18.7956 9.31802 19.5587 9.88063 20.1213C10.4432 20.6839 11.2063 21 12.002 21C12.7976 21 13.5607 20.6839 14.1233 20.1213C14.6859 19.5587 15.002 18.7956 15.002 18V17" stroke="white" stroke-width="2" stroke-linecap="round" stroke-linejoin="round"/>
</g>
<defs>
<clipPath id="clip0_4446_957">
<rect width="24" height="24" fill="white" transform="translate(0.00195312)"/>
</clipPath>
</defs>
</svg>
