<svg width="20" height="20" viewBox="0 0 20 20" fill="none" xmlns="http://www.w3.org/2000/svg">
<g clip-path="url(#clip0_4793_1773)">
<path d="M3.3335 5.00016C3.3335 4.55814 3.50909 4.13421 3.82165 3.82165C4.13421 3.50909 4.55814 3.3335 5.00016 3.3335H15.0002C15.4422 3.3335 15.8661 3.50909 16.1787 3.82165C16.4912 4.13421 16.6668 4.55814 16.6668 5.00016V15.0002C16.6668 15.4422 16.4912 15.8661 16.1787 16.1787C15.8661 16.4912 15.4422 16.6668 15.0002 16.6668H5.00016C4.55814 16.6668 4.13421 16.4912 3.82165 16.1787C3.50909 15.8661 3.3335 15.4422 3.3335 15.0002V5.00016Z" stroke="white" stroke-width="1.5" stroke-linecap="round" stroke-linejoin="round"/>
<path d="M8.3335 3.3335L11.6668 16.6668" stroke="white" stroke-width="1.5" stroke-linecap="round" stroke-linejoin="round"/>
<path d="M10.0002 10L3.3335 11.6667" stroke="white" stroke-width="1.5" stroke-linecap="round" stroke-linejoin="round"/>
</g>
<defs>
<clipPath id="clip0_4793_1773">
<rect width="20" height="20" fill="white"/>
</clipPath>
</defs>
</svg>
