<svg width="12" height="12" viewBox="0 0 12 12" fill="none" xmlns="http://www.w3.org/2000/svg">
<g clip-path="url(#clip0_5441_708)">
<path d="M8.99998 4.5C9.42598 4.5 9.64848 4.993 9.39148 5.3115L9.35348 5.3535L6.35348 8.3535C6.26738 8.43959 6.15283 8.4913 6.03132 8.49894C5.9098 8.50658 5.78968 8.46963 5.69348 8.395L5.64648 8.3535L2.64648 5.3535L2.60498 5.3065L2.57798 5.268L2.55098 5.22L2.54248 5.202L2.52898 5.1685L2.51298 5.1145L2.50798 5.088L2.50298 5.058L2.50098 5.0295V4.9705L2.50348 4.9415L2.50798 4.9115L2.51298 4.8855L2.52898 4.8315L2.54248 4.798L2.57748 4.732L2.60998 4.687L2.64648 4.6465L2.69348 4.605L2.73198 4.578L2.77998 4.551L2.79798 4.5425L2.83148 4.529L2.88548 4.513L2.91198 4.508L2.94198 4.503L2.97048 4.501L8.99998 4.5Z" fill="white" stroke="white" stroke-width="1.5" stroke-linecap="round" stroke-linejoin="round"/>
</g>
<defs>
<clipPath id="clip0_5441_708">
<rect width="12" height="12" fill="white"/>
</clipPath>
</defs>
</svg>
