<svg width="35" height="35" viewBox="0 0 35 35" fill="none" xmlns="http://www.w3.org/2000/svg">
<g id="Vector">
<path d="M35 17.5031C35 7.8374 27.1649 0.00292969 17.5002 0.00292969C7.83511 0.00292969 0 7.83733 0 17.5031C0 27.1675 7.83511 35.0025 17.5002 35.0025C27.1649 35.0025 35 27.1675 35 17.5031Z" fill="#E04F5F"/>
<path d="M19.5431 17.5029L24.6594 11.5636C25.2174 10.9158 25.1445 9.93821 24.4965 9.38022C23.8494 8.82265 22.8717 8.89517 22.3134 9.54289L17.4999 15.1307L12.6869 9.54289C12.1289 8.89475 11.1511 8.82223 10.5033 9.38022C9.85531 9.93821 9.78279 10.9159 10.3408 11.5636L15.4566 17.5029L10.3408 23.442C9.78279 24.0897 9.85531 25.0674 10.5033 25.6253C10.7956 25.8771 11.1552 26.0005 11.5132 26.0005C11.9478 26.0005 12.3804 25.8181 12.6869 25.4627L17.4999 19.8749L22.3134 25.4627C22.6194 25.8183 23.052 26.0005 23.487 26.0005C23.8446 26.0005 24.2043 25.8771 24.4965 25.6253C25.1445 25.0674 25.2175 24.0896 24.6595 23.442L19.5431 17.5029Z" fill="white"/>
</g>
</svg>
