<svg width="46" height="46" viewBox="0 0 46 46" fill="none" xmlns="http://www.w3.org/2000/svg">
<g clip-path="url(#clip0_4196_6527)">
<path d="M23.0002 7.66669C31.2227 7.66669 38.0709 12.3223 43.4414 21.3785L43.8631 22.1049L43.9494 22.2966L44.0069 22.4557L44.0337 22.5611L44.0605 22.7183L44.0816 22.9099V23.1208L44.0548 23.3335C44.0422 23.4047 44.0256 23.4751 44.0049 23.5444L43.9302 23.7514L43.8612 23.8951L43.8305 23.9526C38.5329 33.2216 31.7555 38.0976 23.6001 38.3257L23.0002 38.3334C14.5745 38.3334 7.59595 33.4478 2.16986 23.9507C2.00447 23.6611 1.91748 23.3335 1.91748 23C1.91748 22.6666 2.00447 22.3389 2.16986 22.0494C7.59595 12.5523 14.5745 7.66669 23.0002 7.66669ZM23.0002 17.25C21.4752 17.25 20.0127 17.8558 18.9343 18.9342C17.856 20.0125 17.2502 21.475 17.2502 23C17.2502 24.525 17.856 25.9875 18.9343 27.0659C20.0127 28.1442 21.4752 28.75 23.0002 28.75C24.5252 28.75 25.9877 28.1442 27.0661 27.0659C28.1444 25.9875 28.7502 24.525 28.7502 23C28.7502 21.475 28.1444 20.0125 27.0661 18.9342C25.9877 17.8558 24.5252 17.25 23.0002 17.25Z" stroke="#9bb291" stroke-width="2.11211" stroke-linecap="round" stroke-linejoin="round"/>
</g>
<defs>
<clipPath id="clip0_4196_6527">
<rect width="46" height="46" fill="white"/>
</clipPath>
</defs>
</svg>
