<svg width="20" height="20" viewBox="0 0 20 20" fill="none" xmlns="http://www.w3.org/2000/svg">
<g clip-path="url(#clip0_5336_41166)">
<path d="M2.5 5.83331C2.5 5.17027 2.76339 4.53439 3.23223 4.06555C3.70107 3.59671 4.33696 3.33331 5 3.33331H15C15.663 3.33331 16.2989 3.59671 16.7678 4.06555C17.2366 4.53439 17.5 5.17027 17.5 5.83331V14.1666C17.5 14.8297 17.2366 15.4656 16.7678 15.9344C16.2989 16.4033 15.663 16.6666 15 16.6666H5C4.33696 16.6666 3.70107 16.4033 3.23223 15.9344C2.76339 15.4656 2.5 14.8297 2.5 14.1666V5.83331Z" stroke="white" stroke-width="1.5" stroke-linecap="round" stroke-linejoin="round"/>
<path d="M5.83325 8.33335C5.83325 8.77538 6.00885 9.1993 6.32141 9.51186C6.63397 9.82443 7.05789 10 7.49992 10C7.94195 10 8.36587 9.82443 8.67843 9.51186C8.99099 9.1993 9.16659 8.77538 9.16659 8.33335C9.16659 7.89133 8.99099 7.4674 8.67843 7.15484C8.36587 6.84228 7.94195 6.66669 7.49992 6.66669C7.05789 6.66669 6.63397 6.84228 6.32141 7.15484C6.00885 7.4674 5.83325 7.89133 5.83325 8.33335Z" stroke="white" stroke-width="1.5" stroke-linecap="round" stroke-linejoin="round"/>
<path d="M12.5 6.66669H14.1667" stroke="white" stroke-width="1.5" stroke-linecap="round" stroke-linejoin="round"/>
<path d="M12.5 10H14.1667" stroke="white" stroke-width="1.5" stroke-linecap="round" stroke-linejoin="round"/>
<path d="M5.83325 13.3333H14.1666" stroke="white" stroke-width="1.5" stroke-linecap="round" stroke-linejoin="round"/>
</g>
<defs>
<clipPath id="clip0_5336_41166">
<rect width="20" height="20" fill="white"/>
</clipPath>
</defs>
</svg>
