<svg width="704" height="588" viewBox="0 0 704 588" fill="none" xmlns="http://www.w3.org/2000/svg">
<path d="M301.19 378.371L299.899 386.307L298.509 394.833L285.826 472.595H265.085L277.768 394.833L279.158 386.307L280.449 378.371H301.19Z" fill="#EBEBEB"/>
<path d="M298.184 378.371C297.092 386.248 295.917 394.111 294.73 401.974L291.072 425.544L287.239 449.086L285.26 460.847L283.201 472.595L284.888 460.788L286.655 448.993L290.312 425.423L294.146 401.881C295.457 394.039 296.779 386.198 298.184 378.371Z" fill="#C7C7C7"/>
<path d="M299.899 386.307L298.509 394.833H277.768L279.158 386.307H299.899Z" fill="#C7C7C7"/>
<path d="M403.575 378.371L404.866 386.307L406.256 394.833L418.939 472.595H439.68L426.997 394.833L425.606 386.307L424.316 378.371H403.575Z" fill="#EBEBEB"/>
<path d="M406.645 378.371C407.737 386.248 408.911 394.111 410.099 401.974L413.756 425.544L417.588 449.086L419.567 460.847L421.626 472.595L419.939 460.788L418.172 448.993L414.514 425.423L410.68 401.881C409.372 394.039 408.05 386.198 406.645 378.371Z" fill="#C7C7C7"/>
<path d="M404.866 386.307H425.606L426.997 394.833H406.256L404.866 386.307Z" fill="#C7C7C7"/>
<path d="M300.434 356.496H283.989L286.034 341.167H298.39L300.434 356.496Z" fill="#C7C7C7"/>
<path d="M307.319 332.882C308.79 324.547 303.226 316.597 294.89 315.126C286.555 313.655 278.605 319.22 277.134 327.555C275.663 335.891 281.227 343.84 289.563 345.312C297.898 346.783 305.848 341.218 307.319 332.882Z" fill="#DBDBDB"/>
<path d="M303.575 332.897C305.058 326.636 301.185 320.358 294.925 318.874C288.664 317.39 282.385 321.263 280.902 327.524C279.418 333.785 283.291 340.063 289.552 341.547C295.813 343.03 302.091 339.158 303.575 332.897Z" fill="white"/>
<path d="M301.95 329.535C301.744 326.689 300.298 324.069 298.146 322.385C295.989 320.693 293.135 319.912 290.311 320.332C287.583 320.74 285.1 322.359 283.577 324.713C282.032 327.064 281.51 330.148 282.348 333.116C283.021 335.55 284.72 337.657 286.896 338.876C289.07 340.114 291.67 340.494 294.027 339.971C296.402 339.474 298.54 338.143 300.01 336.309C301.492 334.487 302.377 332.187 302.473 329.819C302.478 329.707 302.438 329.613 302.38 329.609C302.325 329.609 302.274 329.695 302.268 329.81C302.229 330.771 302.019 331.716 301.724 332.619C301.407 333.519 300.965 334.363 300.436 335.148C299.888 335.92 299.246 336.62 298.528 337.244C297.796 337.854 296.984 338.374 296.109 338.807C293.638 339.993 290.692 340.077 288.156 338.997C285.623 337.939 283.584 335.743 282.762 333.08C281.88 330.261 282.315 327.248 283.781 324.925C285.237 322.603 287.671 320.998 290.338 320.61C294.018 320.082 297.735 321.432 299.989 324.453C300.533 325.198 300.959 326.016 301.29 326.876C301.606 327.742 301.798 328.649 301.901 329.582C301.908 329.607 301.923 329.617 301.936 329.609C301.95 329.597 301.955 329.568 301.95 329.535Z" fill="#EBEBEB"/>
<path d="M300.585 329.546C300.38 327.099 299.125 324.88 297.284 323.444C295.436 322.008 293.019 321.336 290.592 321.668C288.255 321.994 286.101 323.364 284.763 325.384C283.409 327.396 282.928 330.073 283.633 332.661C284.197 334.785 285.678 336.637 287.581 337.696C289.478 338.771 291.749 339.096 293.8 338.626C295.862 338.179 297.711 337.014 298.979 335.415C300.256 333.825 301.017 331.844 301.108 329.79C301.113 329.693 301.073 329.611 301.015 329.608C300.96 329.608 300.91 329.683 300.904 329.783C300.731 333.14 298.597 336.089 295.583 337.549C293.463 338.59 290.901 338.681 288.704 337.749C286.508 336.839 284.734 334.922 284.043 332.615C283.299 330.172 283.698 327.567 284.976 325.587C286.248 323.602 288.354 322.249 290.624 321.947C293.768 321.539 296.899 322.651 298.856 325.215C299.324 325.847 299.693 326.542 299.985 327.274C300.261 328.012 300.435 328.786 300.537 329.588C300.545 329.611 300.56 329.619 300.573 329.611C300.585 329.6 300.591 329.573 300.585 329.546Z" fill="#EBEBEB"/>
<path d="M299.22 329.556C299.015 327.507 297.953 325.692 296.423 324.502C294.885 323.322 292.902 322.757 290.872 323.002C288.927 323.245 287.101 324.365 285.95 326.052C284.785 327.727 284.347 329.996 284.917 332.206C285.372 334.02 286.636 335.617 288.264 336.517C289.885 337.432 291.826 337.698 293.572 337.281C295.323 336.886 296.882 335.884 297.948 334.522C299.019 333.166 299.657 331.502 299.745 329.762C299.749 329.68 299.71 329.61 299.65 329.609C299.595 329.609 299.545 329.671 299.539 329.755C299.373 332.584 297.574 335.031 295.057 336.29C293.286 337.185 291.107 337.284 289.252 336.5C287.392 335.736 285.885 334.099 285.322 332.146C284.715 330.078 285.079 327.883 286.168 326.245C287.255 324.598 289.031 323.498 290.908 323.28C292.224 323.14 293.495 323.285 294.665 323.728C295.833 324.174 296.902 324.928 297.721 325.972C298.114 326.492 298.424 327.064 298.678 327.668C298.915 328.277 299.068 328.919 299.171 329.59C299.178 329.607 299.194 329.619 299.206 329.61C299.222 329.602 299.226 329.579 299.22 329.556Z" fill="#EBEBEB"/>
<path d="M297.857 329.567C297.65 327.916 296.782 326.502 295.563 325.559C294.335 324.635 292.787 324.178 291.155 324.337C289.602 324.497 288.105 325.369 287.141 326.722C286.167 328.059 285.769 329.922 286.206 331.753C286.552 333.258 287.6 334.597 288.954 335.339C290.298 336.091 291.909 336.301 293.35 335.936C294.788 335.594 296.058 334.757 296.92 333.629C297.787 332.507 298.301 331.159 298.383 329.734C298.387 329.667 298.348 329.61 298.29 329.608C298.235 329.608 298.184 329.658 298.179 329.727C298.02 332.028 296.555 333.973 294.535 335.03C293.116 335.78 291.32 335.886 289.803 335.25C288.278 334.634 287.041 333.277 286.608 331.677C286.139 329.985 286.464 328.199 287.366 326.903C288.267 325.592 289.715 324.745 291.199 324.611C292.242 324.529 293.238 324.649 294.156 324.989C295.072 325.333 295.926 325.912 296.592 326.728C296.91 327.137 297.163 327.585 297.377 328.06C297.576 328.541 297.709 329.051 297.812 329.592C297.819 329.605 297.835 329.616 297.849 329.608C297.857 329.603 297.863 329.585 297.857 329.567Z" fill="#EBEBEB"/>
<path d="M420.422 356.496H403.978L406.022 341.167H418.378L420.422 356.496Z" fill="#C7C7C7"/>
<path d="M427.383 332.518C428.66 324.15 422.912 316.332 414.545 315.054C406.177 313.777 398.358 319.525 397.081 327.893C395.804 336.261 401.552 344.079 409.919 345.357C418.287 346.634 426.106 340.886 427.383 332.518Z" fill="#DBDBDB"/>
<path d="M423.749 331.976C424.719 325.615 420.35 319.673 413.989 318.702C407.628 317.732 401.686 322.102 400.715 328.463C399.745 334.823 404.115 340.766 410.475 341.736C416.836 342.707 422.779 338.337 423.749 331.976Z" fill="white"/>
<path d="M421.938 329.536C421.732 326.69 420.286 324.07 418.134 322.385C415.977 320.694 413.123 319.913 410.3 320.333C407.569 320.74 405.089 322.36 403.565 324.714C402.02 327.065 401.499 330.149 402.336 333.116C403.01 335.55 404.708 337.657 406.884 338.877C409.058 340.114 411.658 340.495 414.015 339.972C416.39 339.474 418.528 338.144 419.999 336.31C421.48 334.487 422.365 332.187 422.461 329.819C422.467 329.708 422.426 329.613 422.368 329.609C422.313 329.609 422.262 329.695 422.257 329.811C422.217 330.772 422.007 331.716 421.713 332.62C421.395 333.519 420.953 334.363 420.424 335.149C419.877 335.921 419.235 336.62 418.516 337.244C417.784 337.855 416.972 338.375 416.097 338.808C413.626 339.993 410.68 340.078 408.144 338.998C405.613 337.939 403.571 335.743 402.75 333.081C401.868 330.262 402.303 327.248 403.769 324.925C405.225 322.604 407.66 320.998 410.326 320.611C414.007 320.082 417.724 321.432 419.977 324.453C420.522 325.199 420.947 326.016 421.278 326.876C421.594 327.743 421.786 328.649 421.889 329.582C421.896 329.608 421.911 329.618 421.924 329.609C421.938 329.598 421.944 329.568 421.938 329.536Z" fill="#EBEBEB"/>
<path d="M420.573 329.547C420.368 327.1 419.113 324.881 417.272 323.445C415.424 322.008 413.007 321.336 410.58 321.669C408.243 321.994 406.089 323.364 404.751 325.384C403.397 327.397 402.916 330.074 403.621 332.662C404.185 334.786 405.666 336.638 407.569 337.696C409.466 338.772 411.737 339.096 413.788 338.627C415.85 338.18 417.699 337.014 418.967 335.416C420.244 333.826 421.005 331.844 421.096 329.79C421.102 329.693 421.061 329.611 421.003 329.609C420.948 329.609 420.898 329.683 420.892 329.783C420.719 333.141 418.585 336.09 415.571 337.55C413.451 338.59 410.889 338.682 408.693 337.75C406.496 336.839 404.723 334.922 404.031 332.615C403.287 330.172 403.686 327.568 404.963 325.587C406.234 323.603 408.34 322.249 410.611 321.948C413.754 321.539 416.888 322.651 418.843 325.215C419.31 325.848 419.68 326.543 419.972 327.274C420.248 328.013 420.421 328.787 420.524 329.589C420.531 329.611 420.547 329.62 420.559 329.611C420.575 329.6 420.579 329.573 420.573 329.547Z" fill="#EBEBEB"/>
<path d="M419.211 329.557C419.005 327.508 417.944 325.693 416.413 324.503C414.875 323.323 412.892 322.758 410.863 323.003C408.917 323.246 407.092 324.366 405.94 326.053C404.776 327.728 404.338 329.997 404.909 332.207C405.364 334.021 406.628 335.618 408.256 336.518C409.877 337.432 411.818 337.699 413.565 337.282C415.315 336.887 416.874 335.885 417.94 334.523C419.011 333.167 419.649 331.503 419.737 329.763C419.741 329.681 419.702 329.611 419.644 329.61C419.589 329.61 419.538 329.672 419.533 329.756C419.366 332.585 417.568 335.032 415.05 336.291C413.28 337.186 411.101 337.285 409.244 336.501C407.384 335.737 405.878 334.1 405.316 332.147C404.709 330.079 405.072 327.884 406.162 326.246C407.248 324.599 409.024 323.499 410.902 323.281C412.217 323.141 413.488 323.286 414.658 323.729C415.825 324.174 416.895 324.929 417.714 325.973C418.107 326.493 418.418 327.065 418.671 327.669C418.908 328.278 419.062 328.92 419.165 329.591C419.172 329.608 419.187 329.619 419.201 329.611C419.211 329.603 419.217 329.58 419.211 329.557Z" fill="#EBEBEB"/>
<path d="M417.846 329.567C417.641 327.917 416.772 326.503 415.552 325.56C414.324 324.635 412.776 324.179 411.144 324.338C409.591 324.497 408.094 325.37 407.13 326.723C406.156 328.059 405.758 329.922 406.195 331.753C406.541 333.259 407.589 334.598 408.943 335.339C410.287 336.092 411.898 336.302 413.339 335.937C414.777 335.594 416.047 334.757 416.909 333.629C417.776 332.507 418.291 331.16 418.372 329.735C418.376 329.667 418.337 329.611 418.279 329.608C418.224 329.608 418.173 329.659 418.168 329.728C418.009 332.028 416.544 333.973 414.524 335.031C413.105 335.78 411.309 335.886 409.792 335.25C408.269 334.634 407.03 333.277 406.597 331.677C406.128 329.986 406.453 328.2 407.355 326.903C408.256 325.592 409.704 324.745 411.188 324.611C412.231 324.53 413.227 324.649 414.145 324.989C415.061 325.333 415.915 325.912 416.581 326.728C416.899 327.137 417.152 327.585 417.366 328.06C417.565 328.541 417.699 329.051 417.801 329.593C417.808 329.605 417.824 329.617 417.838 329.608C417.847 329.604 417.852 329.586 417.846 329.567Z" fill="#EBEBEB"/>
<path d="M455.71 348.682H249.056V388.209H455.71V348.682Z" fill="#DBDBDB"/>
<path d="M291.529 348.681L276.532 388.207H249.844L264.843 348.681H291.529Z" fill="#EBEBEB"/>
<path d="M346.236 348.681L331.238 388.207H304.542L319.539 348.681H346.236Z" fill="#EBEBEB"/>
<path d="M400.934 348.681L385.937 388.207H359.249L374.248 348.681H400.934Z" fill="#EBEBEB"/>
<path d="M455.64 348.681L440.643 388.207H413.947L428.944 348.681H455.64Z" fill="#EBEBEB"/>
<path d="M451.526 424.753H253.239V449.768H451.526V424.753Z" fill="#DBDBDB"/>
<path d="M293.994 424.753L279.603 449.768H253.997L268.387 424.753H293.994Z" fill="#EBEBEB"/>
<path d="M346.487 424.753L332.096 449.768H306.48L320.872 424.753H346.487Z" fill="#EBEBEB"/>
<path d="M398.968 424.753L384.578 449.768H358.971L373.363 424.753H398.968Z" fill="#EBEBEB"/>
<path d="M451.462 424.753L437.071 449.768H411.454L425.845 424.753H451.462Z" fill="#EBEBEB"/>
<path d="M659.376 160.442H499.845C499.845 160.442 515.662 117.239 540.006 117.239C564.35 117.239 571.976 147.06 571.976 147.06C571.976 147.06 588.401 130.858 601.892 130.858C615.384 130.858 627.115 152.268 627.115 152.268C627.115 152.268 646.179 140.754 659.376 160.442Z" fill="#ECEBEB"/>
<path d="M231.822 59.1158H157.269C157.269 59.1158 173.928 34.9805 187.052 34.9805C200.178 34.9805 204.056 51.0716 204.056 51.0716C204.056 51.0716 213.318 43.5631 221.9 44.9035C230.481 46.244 231.822 59.1158 231.822 59.1158Z" fill="#ECEBEB"/>
<path d="M633.979 232.895H559.426C559.426 232.895 576.085 208.76 589.209 208.76C602.333 208.76 606.212 224.851 606.212 224.851C606.212 224.851 615.474 217.342 624.057 218.683C632.637 220.022 633.979 232.895 633.979 232.895Z" fill="#ECEBEB"/>
<path d="M190.605 119.592H45.3887C45.3887 119.592 65.2757 75.1945 86.5483 72.4192C107.822 69.6438 117.996 105.409 117.996 105.409C117.996 105.409 131.717 92.7685 142.508 92.7685C153.299 92.7685 161.624 109.418 161.624 109.418C161.624 109.418 183.205 98.0092 190.605 119.592Z" fill="#ECEBEB"/>
<path d="M50.6167 472.951L125.353 472.609L200.09 472.485L349.563 472.25L499.037 472.484L573.774 472.608L648.51 472.951L573.774 473.297L499.037 473.421L349.563 473.655L200.09 473.419L125.353 473.295L50.6167 472.951Z" fill="#263238"/>
<path d="M352.382 584.04C515.929 584.04 648.51 568.585 648.51 549.52C648.51 530.456 515.929 515.001 352.382 515.001C188.835 515.001 56.2542 530.456 56.2542 549.52C56.2542 568.585 188.835 584.04 352.382 584.04Z" fill="#ECEBEB"/>
<path d="M391.105 555.954C394.034 556.945 477.962 557.239 481.171 555.228C482.392 554.471 483.147 542.251 483.641 527.458C483.748 524.264 483.839 520.964 483.913 517.612L490.718 472.847L434.612 472.487L429.315 517.262L429.529 527.111C429.529 527.111 397.345 541.371 394.064 543.955C390.801 546.538 388.178 554.962 391.105 555.954Z" fill="#ADACAC"/>
<path d="M391.105 555.953C394.034 556.944 477.962 557.239 481.171 555.227C482.654 554.299 483.462 536.453 483.913 517.613L429.316 517.263L429.53 527.112C429.53 527.112 397.347 541.372 394.065 543.955C390.801 546.538 388.178 554.961 391.105 555.953Z" fill="white"/>
<path d="M391.105 555.953C394.034 556.944 477.961 557.239 481.171 555.228C482.392 554.471 483.147 542.25 483.64 527.457L429.53 527.11C429.53 527.11 397.346 541.371 394.065 543.954C390.8 546.538 388.177 554.961 391.105 555.953Z" fill="#C7C6C6"/>
<path d="M392.322 552.6C406.392 552.304 463.171 552.438 477.101 553.215C477.215 553.22 477.214 553.298 477.101 553.304C463.162 553.901 406.387 553.308 392.321 552.831C392.024 552.82 392.025 552.606 392.322 552.6Z" fill="#263238"/>
<path d="M399.473 540.954C402.811 540.83 406.066 542.426 407.878 544.419C409.619 546.334 411.105 549.024 410.996 551.941C410.994 552.024 410.838 552.027 410.826 551.94C410.042 546.431 405.051 541.578 399.472 541.129C399.361 541.12 399.359 540.958 399.473 540.954Z" fill="#263238"/>
<path d="M424.069 528.49C429.7 528.432 436.222 530.442 439.705 535.06C439.84 535.239 439.584 535.428 439.417 535.342C434.336 532.7 429.504 530.727 423.97 529.183C423.58 529.075 423.666 528.494 424.069 528.49Z" fill="#263238"/>
<path d="M419.716 530.171C425.347 530.112 431.869 532.123 435.352 536.741C435.488 536.92 435.231 537.108 435.065 537.021C429.983 534.38 425.152 532.406 419.618 530.863C419.227 530.754 419.313 530.175 419.716 530.171Z" fill="#263238"/>
<path d="M415.364 531.848C420.995 531.791 427.517 533.801 431 538.418C431.136 538.597 430.879 538.786 430.713 538.7C425.631 536.059 420.799 534.085 415.266 532.542C414.875 532.433 414.96 531.853 415.364 531.848Z" fill="#263238"/>
<path d="M411.01 533.529C416.641 533.47 423.163 535.481 426.646 540.099C426.782 540.278 426.525 540.467 426.359 540.381C421.277 537.739 416.445 535.766 410.912 534.223C410.521 534.113 410.607 533.533 411.01 533.529Z" fill="#263238"/>
<path d="M473.566 539.838C479.883 539.879 479.831 549.698 473.502 549.657C467.185 549.616 467.237 539.797 473.566 539.838Z" fill="#263238"/>
<path d="M418.457 521.699C421.482 525.63 426.104 528.115 430.102 530.902C430.517 531.191 430.995 530.854 431.117 530.451C431.21 530.458 431.3 530.41 431.293 530.29C430.996 525.436 429.059 519.857 426.228 515.872C424.478 513.411 420.895 511.089 418.037 513.443C415.332 515.669 416.691 519.403 418.457 521.699ZM418.212 517.033C418.794 510.909 424.304 515.635 425.521 517.499C426.304 518.697 426.955 520.013 427.565 521.304C428.844 524.012 429.713 526.849 430.709 529.66C428.828 528.17 426.837 526.855 424.903 525.437C422.598 523.744 417.892 520.409 418.212 517.033Z" fill="#263238"/>
<path d="M451.302 526.769C450.874 523.091 446.682 522.281 443.716 522.842C438.913 523.749 433.649 526.428 430.069 529.72C429.98 529.801 430.014 529.899 430.085 529.958C429.893 530.333 430.003 530.907 430.503 530.986C435.318 531.75 440.37 533.164 445.277 532.428C448.141 531.997 451.708 530.247 451.302 526.769ZM438.04 530.651C435.662 530.332 433.315 529.899 430.928 529.669C433.593 528.335 436.188 526.893 438.986 525.829C440.321 525.32 441.702 524.825 443.098 524.502C445.267 524.002 452.515 524.418 448.688 529.234C446.578 531.889 440.873 531.03 438.04 530.651Z" fill="#263238"/>
<path d="M573.166 265.925C573.166 265.925 508.009 376.769 506.264 384.551C503.583 396.509 489.373 514.608 489.373 514.608L421.576 513.387C421.576 513.387 433.261 409.263 444.327 374.959C452.298 350.25 509.801 268.3 509.801 268.3L573.166 265.925Z" fill="#444343"/>
<path d="M427.74 502.992C437.477 502.921 471.978 502.532 484.939 503.742C485.038 503.752 485.035 503.915 484.936 503.929C480.475 504.569 437.469 503.573 427.738 503.26C427.554 503.254 427.557 502.993 427.74 502.992Z" fill="#263238"/>
<path d="M562.045 276.095C557.775 282.792 553.27 289.349 548.905 295.988C544.537 302.629 540.186 309.281 535.891 315.968C527.307 329.334 518.947 342.84 510.742 356.431C506.894 362.805 503.228 369.238 500.585 376.19C497.966 383.077 496.184 390.241 494.867 397.465C493.537 404.741 492.662 412.088 491.836 419.431C490.957 427.251 490.09 435.071 489.216 442.893C487.43 458.895 485.644 474.896 483.857 490.898C483.637 492.862 483.423 494.824 483.227 496.789C483.199 497.076 483.713 497.134 483.75 496.845C485.744 480.944 487.402 464.997 489.213 449.075C490.115 441.149 491.017 433.222 491.919 425.296C492.758 417.926 493.556 410.547 494.7 403.216C495.824 396.015 497.282 388.842 499.476 381.871C501.766 374.588 505.01 367.751 508.849 361.127C516.706 347.578 525.019 334.259 533.337 320.974C541.726 307.575 550.185 294.214 558.958 281.051C560.042 279.426 561.134 277.809 562.258 276.21C562.342 276.085 562.126 275.967 562.045 276.095Z" fill="#263238"/>
<path d="M515.563 565.273C518.653 565.477 601.921 543.521 604.516 540.764C604.602 540.671 604.671 540.477 604.712 540.195C605.044 537.47 600.78 527.241 597.796 514.154C597.612 513.316 596.043 509.346 593.847 503.98C587.808 489.242 577.024 463.937 577.024 463.937L522.65 477.881L542.678 518.124L545.386 527.591C545.386 527.591 517.892 549.584 515.381 552.914C512.884 556.241 512.485 565.056 515.563 565.273Z" fill="#ADACAC"/>
<path d="M515.563 565.274C518.653 565.478 601.921 543.522 604.516 540.765C604.602 540.672 604.671 540.477 604.712 540.195C605.044 537.471 600.78 527.242 597.796 514.154C597.612 513.317 596.043 509.347 593.847 503.98L542.678 518.125L545.386 527.591C545.386 527.591 517.892 549.584 515.381 552.915C512.884 556.242 512.485 565.057 515.563 565.274Z" fill="white"/>
<path d="M515.569 565.267C518.653 565.48 601.924 543.522 604.515 540.76C605.503 539.718 603.345 528.453 597.803 514.153L545.387 527.593C545.387 527.593 517.892 549.576 515.378 552.91C512.879 556.24 512.485 565.054 515.569 565.267Z" fill="#C7C6C6"/>
<path d="M515.89 561.715C529.421 557.847 584.363 543.523 598.033 540.728C598.144 540.706 598.164 540.78 598.056 540.813C584.727 544.94 529.671 558.818 515.948 561.937C515.659 562.004 515.604 561.797 515.89 561.715Z" fill="#263238"/>
<path d="M519.843 548.631C523.039 547.661 526.593 548.376 528.853 549.842C531.024 551.252 533.146 553.474 533.783 556.323C533.802 556.405 533.652 556.446 533.619 556.365C531.458 551.237 525.397 547.815 519.887 548.802C519.777 548.821 519.735 548.665 519.843 548.631Z" fill="#263238"/>
<path d="M540.454 530.32C545.885 528.83 552.705 529.114 557.248 532.692C557.424 532.83 557.224 533.079 557.04 533.037C551.453 531.776 546.279 531.099 540.535 531.014C540.129 531.009 540.065 530.425 540.454 530.32Z" fill="#263238"/>
<path d="M536.673 533.051C542.104 531.561 548.923 531.844 553.466 535.424C553.642 535.563 553.442 535.811 553.259 535.77C547.673 534.508 542.497 533.832 536.753 533.747C536.349 533.74 536.286 533.158 536.673 533.051Z" fill="#263238"/>
<path d="M532.891 535.785C538.322 534.295 545.141 534.578 549.684 538.158C549.86 538.296 549.66 538.545 549.477 538.504C543.891 537.242 538.715 536.564 532.971 536.481C532.567 536.474 532.502 535.89 532.891 535.785Z" fill="#263238"/>
<path d="M529.109 538.516C534.539 537.026 541.357 537.309 545.902 540.889C546.078 541.027 545.878 541.277 545.694 541.235C540.108 539.973 534.933 539.297 529.189 539.212C528.783 539.205 528.719 538.623 529.109 538.516Z" fill="#263238"/>
<path d="M591.208 528.693C597.328 527.124 599.777 536.633 593.647 538.204C587.526 539.774 585.077 530.266 591.208 528.693Z" fill="#263238"/>
<path d="M533.298 525.179C537.225 528.211 542.326 529.437 546.902 531.114C547.377 531.289 547.754 530.841 547.768 530.419C547.859 530.402 547.934 530.333 547.897 530.219C546.374 525.6 543.081 520.699 539.328 517.566C537.01 515.632 532.954 514.299 530.789 517.301C528.742 520.144 531.006 523.41 533.298 525.179ZM531.874 520.729C530.877 514.658 537.409 517.825 539.061 519.318C540.123 520.278 541.087 521.384 542.006 522.478C543.931 524.771 545.494 527.294 547.173 529.758C544.976 528.797 542.715 528.032 540.483 527.152C537.825 526.103 532.424 524.077 531.874 520.729Z" fill="#263238"/>
<path d="M566.352 521.722C565.002 518.274 560.741 518.557 558.016 519.855C553.602 521.956 549.194 525.885 546.57 529.98C546.505 530.08 546.561 530.167 546.646 530.205C546.556 530.617 546.809 531.144 547.312 531.093C552.163 530.607 557.409 530.688 561.966 528.728C564.626 527.582 567.629 524.983 566.352 521.722ZM554.515 528.851C552.134 529.148 549.755 529.327 547.387 529.712C549.625 527.743 551.767 525.688 554.202 523.946C555.364 523.114 556.573 522.283 557.84 521.617C559.811 520.581 566.926 519.138 564.451 524.77C563.087 527.877 557.351 528.497 554.515 528.851Z" fill="#263238"/>
<path d="M538.951 515.536L599.862 499.552C599.862 499.552 541.546 384.777 542.019 376.85C542.439 369.828 584.741 308.237 587.08 296.707C590.91 277.835 581.716 260.977 572.803 250.535L509.803 268.297C509.803 268.297 514.819 279.192 524.035 286.078C524.035 286.078 484.44 352.187 483.426 373.941C482.406 395.814 538.951 515.536 538.951 515.536Z" fill="#444343"/>
<path d="M537.787 504.193C546.623 501.663 544.052 502.265 552.917 499.832C557.255 498.642 585.767 490.847 590.009 490.449C590.102 490.44 590.142 490.591 590.056 490.629C586.17 492.375 557.527 499.67 553.166 500.776C544.257 503.037 546.79 502.29 537.856 504.451C537.688 504.493 537.622 504.241 537.787 504.193Z" fill="#263238"/>
<path d="M514.364 283.54C520.418 285.674 526.244 288.654 531.809 291.767C532.027 291.89 531.875 292.217 531.638 292.114C525.757 289.55 519.759 287.091 514.032 284.217C513.581 283.991 513.899 283.377 514.364 283.54Z" fill="#263238"/>
<path d="M521.768 281.987C522.224 283.089 522.588 284.234 522.892 285.384C523.129 286.277 523.456 287.243 523.334 288.168C523.31 288.347 523.063 288.359 522.966 288.237C522.36 287.466 522.117 286.421 521.787 285.515C521.405 284.463 520.999 283.419 520.647 282.358C520.414 281.654 521.486 281.307 521.768 281.987Z" fill="#263238"/>
<path d="M521.76 276.277C521.511 275.31 521.26 274.346 520.989 273.384C520.71 272.391 520.364 271.4 520.162 270.389C520.13 270.23 519.874 270.302 519.917 270.464C520.163 271.431 520.276 272.444 520.448 273.428C520.62 274.416 520.81 275.401 521.003 276.385C521.364 278.218 521.858 280.054 522.396 281.849C521.421 281.71 520.42 281.538 519.588 280.983C518.686 280.38 518.231 279.28 517.876 278.292C517.481 277.197 517.13 276.084 516.719 274.994C516.263 273.789 515.743 272.588 515.504 271.315C515.474 271.154 515.223 271.228 515.258 271.39C515.835 274.028 516.399 276.661 517.501 279.165C517.934 280.149 518.258 281.155 519.226 281.643C520.265 282.166 521.464 282.242 522.608 282.307C522.741 282.363 522.935 282.297 522.908 282.121C522.61 280.17 522.252 278.187 521.76 276.277Z" fill="#263238"/>
<path d="M522.813 288.24C520.415 292.565 517.674 296.717 515.114 300.948C512.614 305.084 510.23 309.286 507.897 313.517C503.183 322.066 498.817 330.828 494.832 339.74C492.861 344.151 490.993 348.607 489.245 353.112C487.493 357.628 485.761 362.195 484.668 366.924C483.573 371.667 483.308 376.463 484.052 381.279C484.808 386.166 486.284 390.912 487.767 395.618C491.151 406.361 494.897 417.006 499.66 427.218C499.819 427.558 500.385 427.3 500.259 426.948C496.936 417.56 493.484 408.204 490.494 398.699C487.595 389.479 484.16 379.924 485.757 370.132C486.526 365.408 488.098 360.86 489.76 356.387C491.455 351.82 493.288 347.305 495.227 342.837C499.05 334.033 503.349 325.476 507.735 316.944C510.194 312.164 512.777 307.452 515.261 302.685C517.763 297.883 520.208 292.983 523.022 288.356C523.105 288.223 522.889 288.103 522.813 288.24Z" fill="#263238"/>
<path d="M568.691 278.992C567.551 278.799 565.884 279.198 560.945 278.859C559.58 278.764 558.224 278.502 556.891 278.198C555.559 277.894 554.203 277.551 553.125 276.67C551.306 275.184 549.929 272.799 548.83 270.757C547.622 268.511 546.396 265.952 545.823 263.457C545.788 263.303 545.565 263.376 545.592 263.527C545.851 264.972 545.995 266.414 546.377 267.843C546.735 269.186 547.254 270.493 547.819 271.762C548.873 274.131 550.107 276.672 552.23 278.272C554.458 279.951 557.565 280.264 560.265 280.453C561.827 280.561 567.951 280.398 568.773 279.522C568.92 279.366 568.908 279.029 568.691 278.992Z" fill="#263238"/>
<path d="M584.74 486.401C577.061 470.775 569.575 455.056 562.27 439.25C554.946 423.405 547.805 407.474 540.8 391.486C539.124 387.662 537.117 383.798 536.248 379.689C535.304 375.221 536.68 371.187 538.566 367.176C542.025 359.818 546.064 352.745 550.332 345.831C554.613 338.896 559.136 332.116 563.603 325.301C568.033 318.541 572.692 311.787 576.323 304.552C579.79 297.641 581.717 290.262 580.725 282.507C579.741 274.814 576.407 267.591 572.831 260.793C571.888 259 570.921 257.218 569.974 255.427C569.902 255.29 569.692 255.417 569.768 255.554C573.756 262.675 577.576 270.161 579.425 278.161C580.338 282.113 580.736 286.203 580.309 290.246C579.876 294.348 578.589 298.309 576.886 302.051C573.574 309.327 568.958 316.028 564.601 322.704C560.147 329.529 555.604 336.299 551.268 343.2C546.906 350.143 542.75 357.229 539.138 364.595C537.53 367.875 535.766 371.296 535.374 374.98C534.945 379.016 536.402 382.885 537.958 386.531C544.732 402.411 551.859 418.148 559.108 433.817C566.384 449.544 573.857 465.182 581.486 480.74C582.447 482.702 583.413 484.663 584.379 486.622C584.501 486.866 584.859 486.643 584.74 486.401Z" fill="#263238"/>
<path d="M508.503 132.949C509.857 126.509 517.068 111.925 531.209 114.78C551.389 118.854 554.315 157.745 564.358 169.863C582.556 191.822 583.153 213.56 568.237 217.036C551.521 220.93 535.253 202.996 535.864 164.181C536.246 139.911 529.4 129.153 524.56 129.878C519.72 130.602 517.078 136.721 517.078 136.721L508.503 132.949Z" fill="#263238"/>
<path d="M509.176 130.528C510.164 127.543 511.523 124.673 513.218 121.982C514.928 119.31 517.095 116.849 519.821 115.047C522.514 113.216 525.846 112.224 529.147 112.344C532.406 112.452 535.659 113.315 538.522 114.941C541.376 116.584 543.743 118.937 545.615 121.554C547.476 124.189 548.94 127.045 550.141 129.987C552.467 135.903 553.866 142.081 554.812 148.288C553.191 142.22 551.349 136.217 548.867 130.529C547.547 127.727 546.101 124.989 544.262 122.55C542.451 120.105 540.25 117.949 537.64 116.481C535.059 114.975 532.079 114.175 529.081 114.02C526.106 113.825 523.139 114.658 520.561 116.213C517.98 117.777 515.763 119.986 513.929 122.477C512.977 123.702 512.146 125.021 511.345 126.361C510.578 127.72 509.855 129.11 509.176 130.528Z" fill="#263238"/>
<path d="M535.744 150.806C535.953 154.657 535.733 158.515 535.658 162.36C535.527 166.204 535.416 170.043 535.414 173.874C535.434 177.704 535.527 181.53 535.913 185.318C536.284 189.104 536.883 192.871 537.974 196.478C539.033 200.085 540.594 203.556 542.886 206.482C545.194 209.362 548.148 211.88 551.341 213.805C554.561 215.723 558.205 216.957 561.978 217.213C563.86 217.353 565.77 217.263 567.64 216.909C568.576 216.735 569.501 216.496 570.404 216.187C571.305 215.878 572.211 215.534 572.999 214.979C571.487 216.193 569.608 216.862 567.742 217.368C565.859 217.862 563.902 218.093 561.942 218.083C559.98 218.055 558.02 217.759 556.116 217.25C554.216 216.726 552.388 215.95 550.656 215.01C548.923 214.07 547.294 212.945 545.779 211.691L544.661 210.729L543.588 209.72C542.876 209.042 542.187 208.304 541.567 207.527C539.059 204.413 537.403 200.736 536.27 196.987C534.081 189.419 533.788 181.558 534.03 173.853C534.153 169.99 534.453 166.145 534.791 162.309C535.161 158.473 535.552 154.651 535.744 150.806Z" fill="#263238"/>
<path d="M507.347 133.057C507.126 131.264 508.203 128.826 509.337 128.394C510.471 127.963 519.452 130.852 520.402 132.996C521.352 135.14 517.7 137.458 517.7 137.458L507.347 133.057Z" fill="#C7C6C6"/>
<path d="M518.12 196.544C512.573 204.449 472.509 237.159 450.671 238.371C440.824 238.918 402.21 234.716 393.615 231.175C383.057 226.827 403.921 200.691 410.549 201.799C418.817 203.181 448.109 206.294 453.937 206.448C463.291 206.696 491.963 190.943 511.326 186.848C521.291 184.742 522.391 190.457 518.12 196.544Z" fill="#ADACAC"/>
<path d="M517.676 198.045C511.56 208.709 489.962 226.996 489.962 226.996L486.279 220.212L474.091 197.789C474.091 197.789 494.561 189.633 508.135 185.67C509.969 185.133 511.592 184.772 513.018 184.603C521.786 183.481 522.95 188.87 517.676 198.045Z" fill="#DBDBDB"/>
<path d="M517.675 198.039C511.564 208.703 489.96 227.004 489.96 227.004L486.273 220.214L483.759 215.585L474.083 197.794C474.083 197.794 494.56 189.632 508.139 185.665C509.976 185.141 511.595 184.77 513.015 184.601C513.199 184.585 513.37 184.554 513.539 184.554C521.84 183.705 522.843 189.059 517.675 198.039Z" fill="#DBDBDB"/>
<path d="M492.146 192.274C492.42 193.259 492.484 194.244 492.498 195.23C492.485 196.215 492.422 197.2 492.146 198.185C491.869 197.2 491.806 196.215 491.793 195.23C491.809 194.244 491.872 193.259 492.146 192.274Z" fill="white"/>
<path d="M489.318 204.237C488.333 204.512 487.347 204.575 486.362 204.589C485.377 204.576 484.391 204.513 483.405 204.237C484.39 203.96 485.375 203.897 486.362 203.884C487.346 203.898 488.333 203.962 489.318 204.237Z" fill="white"/>
<path d="M519.246 187.691C518.261 187.966 517.275 188.03 516.29 188.044C515.305 188.031 514.319 187.968 513.334 187.691C514.319 187.415 515.305 187.352 516.29 187.339C517.275 187.353 518.261 187.416 519.246 187.691Z" fill="white"/>
<path d="M502.926 199.709C503.817 200.212 504.558 200.863 505.266 201.551C505.954 202.257 506.606 202.999 507.107 203.891C506.214 203.389 505.473 202.738 504.767 202.049C504.08 201.343 503.429 200.6 502.926 199.709Z" fill="white"/>
<path d="M491.554 213.815C492.445 214.319 493.186 214.97 493.894 215.658C494.581 216.364 495.234 217.105 495.734 217.997C494.842 217.496 494.101 216.845 493.395 216.155C492.71 215.449 492.057 214.706 491.554 213.815Z" fill="white"/>
<path d="M493.729 222.005C491.677 217.869 482.661 201.24 480.472 197.772C480.32 197.531 480.132 197.565 480.258 197.836C486.113 210.368 491.344 218.119 493.564 222.077C493.62 222.174 493.781 222.109 493.729 222.005Z" fill="#263238"/>
<path d="M517.675 198.039C511.564 208.703 489.96 227.004 489.96 227.004L486.273 220.214L483.759 215.585C495.47 204.027 509.59 189.801 513.54 184.554C521.84 183.705 522.843 189.059 517.675 198.039Z" fill="#A6A6A6"/>
<path d="M497.709 247.181L500.907 282.405C500.907 282.405 505.259 282.332 513.775 281.121C521.509 280.004 532.671 277.963 547.143 274.173C558.033 271.308 570.809 267.457 585.402 262.273C585.402 262.273 552.383 202.704 529.593 186.265C529.073 185.885 528.557 185.534 528.042 185.214C527.941 185.131 527.842 185.08 527.742 185.012C517.378 178.456 508.082 183.579 502.813 190.911C501.511 192.735 488.825 221.579 489.455 231.24C490.033 239.76 497.709 247.181 497.709 247.181Z" fill="#DBDBDB"/>
<path d="M516.029 209.463C516.304 210.448 516.367 211.433 516.381 212.42C516.369 213.405 516.305 214.391 516.029 215.377C515.753 214.392 515.689 213.407 515.677 212.42C515.691 211.433 515.754 210.448 516.029 209.463Z" fill="white"/>
<path d="M524.068 243.413C524.343 244.398 524.406 245.384 524.42 246.37C524.408 247.356 524.344 248.341 524.068 249.327C523.792 248.342 523.728 247.357 523.716 246.37C523.73 245.384 523.795 244.398 524.068 243.413Z" fill="white"/>
<path d="M548.696 222.411C548.971 223.396 549.035 224.382 549.049 225.368C549.036 226.354 548.973 227.339 548.696 228.324C548.42 227.339 548.357 226.354 548.344 225.368C548.358 224.382 548.422 223.396 548.696 222.411Z" fill="white"/>
<path d="M503.562 238.917C503.837 239.903 503.901 240.888 503.915 241.875C503.902 242.86 503.839 243.845 503.562 244.83C503.286 243.845 503.223 242.86 503.21 241.875C503.225 240.889 503.289 239.903 503.562 238.917Z" fill="white"/>
<path d="M534.588 216.252C533.602 216.527 532.617 216.59 531.632 216.604C530.647 216.591 529.661 216.528 528.676 216.252C529.661 215.976 530.647 215.912 531.632 215.899C532.617 215.914 533.602 215.977 534.588 216.252Z" fill="white"/>
<path d="M555.56 242.531C554.574 242.805 553.589 242.869 552.604 242.883C551.618 242.87 550.633 242.807 549.648 242.531C550.633 242.254 551.618 242.191 552.604 242.178C553.589 242.192 554.574 242.256 555.56 242.531Z" fill="white"/>
<path d="M523.682 263.369C522.697 263.644 521.711 263.708 520.725 263.722C519.74 263.709 518.754 263.646 517.768 263.369C518.753 263.093 519.738 263.03 520.725 263.017C521.71 263.033 522.697 263.096 523.682 263.369Z" fill="white"/>
<path d="M560.809 259.355C559.823 259.63 558.838 259.694 557.853 259.708C556.868 259.695 555.882 259.632 554.896 259.355C555.881 259.079 556.866 259.016 557.853 259.003C558.838 259.017 559.823 259.08 560.809 259.355Z" fill="white"/>
<path d="M519.246 187.691C518.26 187.966 517.275 188.03 516.29 188.044C515.305 188.031 514.319 187.968 513.334 187.691C514.319 187.415 515.305 187.352 516.29 187.339C517.275 187.353 518.26 187.416 519.246 187.691Z" fill="white"/>
<path d="M529.541 191.526C530.432 192.029 531.173 192.68 531.881 193.368C532.569 194.074 533.221 194.816 533.722 195.708C532.829 195.206 532.088 194.555 531.382 193.866C530.697 193.158 530.044 192.417 529.541 191.526Z" fill="white"/>
<path d="M560.337 224.493C561.228 224.996 561.969 225.648 562.677 226.335C563.365 227.042 564.017 227.783 564.518 228.675C563.625 228.173 562.884 227.522 562.178 226.833C561.491 226.125 560.84 225.384 560.337 224.493Z" fill="white"/>
<path d="M511.084 228.02C511.975 228.523 512.717 229.174 513.424 229.862C514.112 230.568 514.765 231.31 515.265 232.202C514.373 231.7 513.631 231.049 512.925 230.361C512.239 229.652 511.588 228.911 511.084 228.02Z" fill="white"/>
<path d="M539.347 251.837C540.238 252.341 540.979 252.992 541.686 253.68C542.374 254.386 543.027 255.127 543.527 256.019C542.635 255.518 541.894 254.866 541.188 254.177C540.501 253.471 539.85 252.728 539.347 251.837Z" fill="white"/>
<path d="M502.927 199.709C503.818 200.212 504.56 200.863 505.267 201.551C505.955 202.257 506.608 202.999 507.108 203.891C506.216 203.389 505.475 202.738 504.768 202.049C504.082 201.343 503.431 200.6 502.927 199.709Z" fill="white"/>
<path d="M500.427 222.411C500.93 221.52 501.581 220.778 502.269 220.071C502.975 219.383 503.716 218.73 504.609 218.229C504.107 219.121 503.456 219.862 502.768 220.568C502.06 221.255 501.317 221.907 500.427 222.411Z" fill="white"/>
<path d="M567.302 247.594C567.805 246.703 568.456 245.962 569.143 245.254C569.849 244.566 570.59 243.913 571.482 243.413C570.981 244.305 570.329 245.047 569.642 245.753C568.935 246.439 568.193 247.092 567.302 247.594Z" fill="white"/>
<path d="M504.07 257.685C504.573 256.794 505.224 256.053 505.911 255.345C506.617 254.657 507.359 254.005 508.251 253.504C507.749 254.397 507.098 255.138 506.41 255.844C505.702 256.531 504.961 257.182 504.07 257.685Z" fill="white"/>
<path d="M541.821 209.099C542.324 208.208 542.975 207.466 543.661 206.759C544.368 206.071 545.109 205.418 546.001 204.917C545.499 205.809 544.848 206.55 544.16 207.256C543.453 207.944 542.711 208.595 541.821 209.099Z" fill="white"/>
<path d="M532.46 272.388C532.964 271.497 533.615 270.756 534.301 270.048C535.007 269.361 535.749 268.708 536.641 268.208C536.139 269.1 535.488 269.841 534.8 270.547C534.093 271.234 533.351 271.885 532.46 272.388Z" fill="white"/>
<path d="M532.498 234.29C533.001 233.399 533.652 232.658 534.339 231.95C535.045 231.262 535.786 230.61 536.679 230.109C536.177 231.002 535.524 231.743 534.838 232.449C534.13 233.136 533.389 233.788 532.498 234.29Z" fill="white"/>
<path d="M521.275 184.428C521.077 185.788 515.46 194.991 509.343 195.23C507.35 195.305 506.458 184.446 506.458 184.446L506.208 183.66L502.728 172.647L515.188 163.045L516.998 161.761C516.998 161.761 517.752 164.837 518.651 168.676C518.694 168.854 518.737 169.032 518.78 169.223C518.836 169.439 518.892 169.642 518.936 169.846C519.079 170.419 519.221 171.002 519.351 171.588C519.451 172.034 519.551 172.465 519.64 172.936C519.74 173.407 519.828 173.865 519.93 174.336C520.821 178.993 521.349 183.85 521.275 184.428Z" fill="#ADACAC"/>
<path d="M518.65 168.676C516.204 177.89 509.379 182.15 506.206 183.66L502.726 172.647L515.187 163.045L516.996 161.761C516.996 161.761 517.75 164.837 518.65 168.676Z" fill="#263238"/>
<path d="M487.273 156.019C487.176 176.288 499.305 178.635 503.674 178.651C507.642 178.665 521.154 178.211 523.344 158.062C525.536 137.911 516.143 131.46 507.07 130.945C497.999 130.432 487.37 135.75 487.273 156.019Z" fill="#ADACAC"/>
<path d="M522.242 159.479C518.924 159.818 517.988 152.868 517.988 152.868C517.988 152.868 511.234 153.056 508.764 143.397C508.764 143.397 509.022 147.915 511.953 151.356C511.953 151.356 500.011 150.387 494.749 140.545C494.749 140.545 496.875 145.572 498.796 147.331C498.796 147.331 493.766 146.062 491.23 142.066C491.23 142.066 489.288 147.87 487.722 149.498C487.722 149.498 485.408 139.282 489.648 133.971C498.583 122.776 513.261 132.506 513.261 132.506C513.261 132.506 521.467 133.745 524.393 139.889C528.914 149.377 522.242 159.479 522.242 159.479Z" fill="#263238"/>
<path d="M520.117 159.604C520.117 159.604 524.008 152.937 526.999 154.275C529.989 155.613 527.422 165.024 524.166 166.551C520.91 168.076 519.439 165.089 519.439 165.089L520.117 159.604Z" fill="#ADACAC"/>
<path d="M526.196 156.954C526.25 156.945 526.267 157.021 526.222 157.043C523.944 158.191 522.884 160.475 522.2 162.811C522.83 161.882 523.744 161.327 524.98 162.064C525.045 162.102 524.994 162.204 524.926 162.195C523.944 162.067 523.263 162.292 522.674 163.118C522.257 163.703 521.999 164.421 521.719 165.079C521.626 165.299 521.237 165.217 521.298 164.968C521.302 164.949 521.308 164.93 521.312 164.911C521.008 161.915 522.998 157.521 526.196 156.954Z" fill="#263238"/>
<path d="M489.811 151.966C490.288 151.891 490.715 151.743 491.179 151.622C491.701 151.484 492.133 151.427 492.506 151.004C492.706 150.777 492.673 150.333 492.471 150.119C492 149.617 491.317 149.627 490.681 149.768C489.99 149.92 489.497 150.215 489.059 150.767C488.633 151.303 489.183 152.064 489.811 151.966Z" fill="#263238"/>
<path d="M503.027 153.545C502.546 153.508 502.109 153.394 501.637 153.308C501.104 153.211 500.67 153.188 500.266 152.796C500.048 152.586 500.047 152.141 500.232 151.911C500.662 151.374 501.344 151.331 501.989 151.421C502.69 151.519 503.204 151.775 503.685 152.29C504.152 152.792 503.661 153.594 503.027 153.545Z" fill="#263238"/>
<path d="M500.332 157.689C500.342 157.635 500.442 157.752 500.441 157.81C500.418 159.201 500.627 160.797 501.891 161.24C501.931 161.254 501.928 161.323 501.881 161.317C500.344 161.125 500.088 159.003 500.332 157.689Z" fill="#263238"/>
<path d="M501.55 156.219C503.783 156.014 504.028 160.495 501.959 160.684C499.925 160.87 499.679 156.389 501.55 156.219Z" fill="#263238"/>
<path d="M502.443 156.405C502.848 156.638 503.256 157.063 503.73 157.084C504.278 157.108 504.666 156.617 504.997 156.146C505.032 156.096 505.072 156.134 505.076 156.194C505.135 157.052 504.853 157.95 503.94 158.129C503.107 158.292 502.463 157.565 502.201 156.712C502.154 156.556 502.28 156.312 502.443 156.405Z" fill="#263238"/>
<path d="M492.612 157.752C492.597 157.7 492.507 157.824 492.513 157.882C492.644 159.266 492.561 160.874 491.335 161.414C491.296 161.431 491.305 161.5 491.351 161.49C492.868 161.179 492.957 159.043 492.612 157.752Z" fill="#263238"/>
<path d="M491.281 156.381C489.038 156.352 489.144 160.837 491.22 160.865C493.265 160.893 493.161 156.407 491.281 156.381Z" fill="#263238"/>
<path d="M490.353 156.699C490.005 156.946 489.663 157.386 489.241 157.424C488.751 157.468 488.377 156.991 488.052 156.533C488.018 156.485 487.985 156.525 487.985 156.584C487.98 157.442 488.285 158.329 489.114 158.474C489.868 158.607 490.403 157.858 490.588 157C490.619 156.839 490.492 156.601 490.353 156.699Z" fill="#263238"/>
<path d="M502.099 169.022C501.8 169.378 501.514 169.858 501.016 169.951C500.539 170.04 499.954 169.879 499.494 169.752C499.449 169.739 499.41 169.79 499.442 169.829C499.855 170.324 500.643 170.581 501.273 170.405C501.888 170.233 502.144 169.66 502.237 169.073C502.251 168.988 502.143 168.97 502.099 169.022Z" fill="#263238"/>
<path d="M494.944 163.897C494.944 163.897 494.747 165.983 494.788 166.962C494.792 167.053 497.566 166.698 500.475 167.542C500.912 167.669 500.892 167.307 500.396 167.038C499.405 166.499 498.137 165.971 495.593 166.075C495.512 165.807 495.956 162.868 495.801 162.863C495.264 162.84 494.227 163.249 493.601 163.462C493.886 159.103 494.868 154.827 495.088 150.483C495.094 150.328 494.87 150.291 494.83 150.431C493.484 154.841 493.046 159.849 492.634 164.341C492.578 164.902 494.559 164.08 494.944 163.897Z" fill="#263238"/>
<path d="M497.043 166.953C497.043 166.953 498.414 168.719 499.896 168.871C501.6 169.046 501.724 167.514 499.813 166.744C498.811 166.341 497.043 166.953 497.043 166.953Z" fill="#263238"/>
<path d="M499.89 168.866C499.256 168.809 498.644 168.452 498.148 168.052C498.468 167.506 499.249 166.887 501.112 167.773C501.414 168.415 500.966 168.98 499.89 168.866Z" fill="#FF99BA"/>
<path d="M518.296 181.996C520.772 181.976 524.948 182.617 530.579 186.906C530.579 186.906 518.831 196.353 507.893 196.364C503.984 196.369 502.813 190.911 502.813 190.911C502.813 190.911 508.072 182.079 518.296 181.996Z" fill="#ADACAC"/>
<path d="M703.997 587.824H657.949C624.486 587.824 604.028 564.698 600.345 522.704C598.529 502.009 597.419 476.943 596.242 450.407C592.629 368.904 587.682 257.282 555.964 257.282H519.497V248.825H555.964C595.771 248.825 600.307 351.112 604.69 450.031C605.863 476.475 606.97 501.451 608.77 521.965C611.067 548.151 621.464 579.367 657.951 579.367H703.999V587.824H703.997Z" fill="#C7C6C6"/>
<path opacity="0.2" d="M546.276 248.823L544.472 257.28H519.495V248.823H546.276Z" fill="black"/>
<path d="M450.765 202.441H436.023V305.468H450.765V202.441Z" fill="#C7C6C6"/>
<path d="M436.026 210.052H379.973V296.797H436.026V210.052Z" fill="#C7C6C6"/>
<path opacity="0.2" d="M436.02 210.056V296.801H422.1L415.857 210.056H436.02Z" fill="black"/>
<path d="M379.972 238.587H336.963C333.893 238.587 331.403 236.098 331.403 233.026V231.184C331.403 228.114 333.892 225.624 336.963 225.624H379.972V238.587Z" fill="#DBDBDB"/>
<path d="M379.963 225.627H364.863V238.581H379.963V225.627Z" fill="#A6A6A6"/>
<path d="M379.972 281.224H336.963C333.893 281.224 331.403 278.735 331.403 275.664V273.821C331.403 270.751 333.892 268.262 336.963 268.262H379.972V281.224Z" fill="#DBDBDB"/>
<path d="M379.963 268.265H364.863V281.218H379.963V268.265Z" fill="#A6A6A6"/>
<path d="M537.885 245.149H494.092V262.447H537.885V245.149Z" fill="#FFC727"/>
<path d="M537.892 245.157H494.092V262.447H537.892V245.157Z" fill="#C7C6C6"/>
<path opacity="0.2" d="M509.469 245.157L508.034 262.447H494.092V245.157H509.469Z" fill="black"/>
<path d="M485.421 293.53H450.767V213.318H485.421C490.209 213.318 494.091 217.2 494.091 221.988V284.86C494.091 289.649 490.209 293.53 485.421 293.53Z" fill="#C7C6C6"/>
<path opacity="0.2" d="M469.206 213.322L462.963 293.534H450.771V213.322H469.206Z" fill="black"/>
<g opacity="0.2">
<path d="M465.977 229.532H463.213V277.315H465.977V229.532Z" fill="black"/>
<path d="M473.811 229.532H471.047V277.315H473.811V229.532Z" fill="black"/>
<path d="M481.648 229.532H478.884V277.315H481.648V229.532Z" fill="black"/>
</g>
<path d="M533.822 196.761C538.673 210.361 531.731 260.233 523.517 270.747C511.299 286.384 487.186 300.781 477.963 305.273C473.945 307.231 455.877 278.362 459.819 275.658C468.26 269.866 495.21 256.035 497.497 253.29C499.783 250.543 512.068 224.146 516.989 209.298C523.591 189.377 531.368 189.881 533.822 196.761Z" fill="#ADACAC"/>
<path d="M477.943 305.362C465.15 312.659 439.71 311.587 436.24 310.528C433.28 309.636 431.763 309.147 431.763 309.147C426.422 307.648 424.982 304.691 424.982 304.691C424.982 304.691 418.298 304.776 417.575 300.744C416.751 296.226 426.3 296.991 431.808 294.2C444.429 287.806 460.581 275.188 464.037 272.982L477.943 305.362Z" fill="#ADACAC"/>
<path d="M449.746 296.795C445.994 298.602 442.356 300.476 438.38 301.766C434.016 303.181 429.58 303.811 425.08 304.567C424.939 304.591 424.957 304.788 425.1 304.787C433.462 304.71 442.96 301.727 449.916 297.115C450.083 297.002 449.934 296.703 449.746 296.795Z" fill="#444343"/>
<path d="M454.712 303.851C450.964 305.407 444.359 308.101 431.753 309.011C431.712 309.014 431.704 309.085 431.749 309.087C440.012 309.585 447.564 308.005 454.855 304.233C455.082 304.116 454.961 303.748 454.712 303.851Z" fill="#263238"/>
<path d="M446.531 285.533C447.845 284.048 447.075 283.349 443.609 283.979C440.101 284.608 426.958 290.043 425.452 285.285C423.931 280.511 442.656 273.126 448.509 272.52C454.361 271.9 464.356 272.982 464.356 272.982C461.001 275.151 453.054 281.191 446.531 285.533Z" fill="#ADACAC"/>
<path d="M520.225 200.183C528.755 182.239 536.534 186.992 537.278 204.734C537.973 221.327 535.64 241.641 535.64 241.641L504.726 232.775C504.726 232.775 514.768 211.666 520.225 200.183Z" fill="#DBDBDB"/>
<path d="M527.922 189.729C528.813 190.232 529.555 190.883 530.262 191.571C530.95 192.277 531.603 193.019 532.103 193.911C531.211 193.409 530.469 192.758 529.763 192.069C529.077 191.361 528.426 190.62 527.922 189.729Z" fill="white"/>
<path d="M516.028 209.465C516.303 210.451 516.366 211.436 516.38 212.423C516.368 213.408 516.304 214.393 516.028 215.38C515.752 214.394 515.688 213.409 515.676 212.423C515.69 211.436 515.753 210.451 516.028 209.465Z" fill="white"/>
<path d="M534.588 216.255C533.603 216.53 532.618 216.593 531.633 216.607C530.647 216.594 529.662 216.531 528.677 216.255C529.662 215.978 530.647 215.915 531.633 215.902C532.618 215.916 533.603 215.98 534.588 216.255Z" fill="white"/>
<path d="M511.085 228.021C511.976 228.525 512.717 229.176 513.425 229.864C514.113 230.57 514.765 231.311 515.266 232.204C514.373 231.702 513.632 231.051 512.926 230.363C512.239 229.654 511.588 228.912 511.085 228.021Z" fill="white"/>
<path d="M532.498 234.293C533.001 233.402 533.652 232.661 534.339 231.953C535.045 231.265 535.786 230.613 536.678 230.112C536.177 231.005 535.524 231.746 534.838 232.452C534.13 233.139 533.389 233.791 532.498 234.293Z" fill="white"/>
<path d="M517.27 205.651C516.114 208.002 514.897 210.322 513.687 212.645C513.904 211.539 514.067 210.432 514.188 209.307C514.194 209.257 514.119 209.247 514.109 209.296C513.935 210.173 513.723 211.041 513.564 211.921C513.486 212.342 513.406 212.765 513.323 213.185C513.305 213.275 513.286 213.365 513.268 213.457C512.326 215.268 511.391 217.082 510.501 218.92C509.438 221.112 508.432 223.329 507.417 225.544C506.368 227.831 505.455 230.46 504.319 232.704C504.22 232.899 507.058 233.51 507.33 233.605C507.607 233.702 507.737 233.426 507.454 233.391C507.192 233.358 504.867 232.432 504.836 232.411C505.847 230.18 507.104 228.063 508.185 225.865C509.262 223.678 510.345 221.496 511.374 219.285C513.464 214.798 515.299 210.193 517.364 205.691C517.388 205.631 517.298 205.595 517.27 205.651Z" fill="#263238"/>
<path d="M538.568 216.333C538.28 217.252 537.959 218.168 537.726 219.102C537.63 219.489 537.536 219.875 537.44 220.261C537.554 217.059 537.654 213.856 537.752 210.654C537.753 210.616 537.695 210.607 537.693 210.645C537.254 215.882 536.802 221.114 536.462 226.357C536.136 231.355 535.581 236.455 535.768 241.465C535.351 241.403 532.973 240.87 532.934 241.025C532.894 241.181 536.103 242.062 536.122 241.938C536.906 236.875 536.964 231.268 537.208 226.154C537.277 224.715 537.323 223.273 537.378 221.834C537.554 220.942 537.805 220.068 538.045 219.19C538.299 218.26 538.466 217.302 538.665 216.359C538.675 216.303 538.585 216.278 538.568 216.333Z" fill="#263238"/>
<path d="M534.36 236.95C530.011 235.402 511.973 229.706 507.988 228.734C507.712 228.666 507.6 228.821 507.878 228.928C520.795 233.873 529.944 235.812 534.29 237.116C534.4 237.149 534.472 236.989 534.36 236.95Z" fill="#263238"/>
<path d="M382.829 232.101C387.098 233.405 386.191 227.627 386.191 227.627C386.191 227.627 389.5 235.628 394.422 235.271C399.164 234.913 397.822 227.973 397.733 227.474C397.912 227.895 401.146 235.168 406.054 234.299C411.153 233.391 408.61 226.655 408.444 226.221C408.739 226.566 412.701 231.065 416.28 229.557C422.428 226.962 412.612 215.18 413.328 209.824L421.967 210.077C422.248 210.039 422.542 210.001 422.811 209.949L423.144 205.539C420.677 204.669 417.891 203.047 415.169 201.526C411.91 199.698 408.765 198.036 406.426 197.985C402.579 197.909 401.556 201.206 401.556 201.206C401.556 201.206 399.024 197.206 395.14 197.768C393.145 198.063 391.843 201.513 391.843 201.513C391.843 201.513 389.682 198.394 386.257 199.11C383.522 199.672 382.64 203.047 382.64 203.047C382.64 203.047 379.177 201.014 376.569 202.497C371.3 205.477 373.691 229.302 382.829 232.101Z" fill="#ADACAC"/>
<path d="M414.437 209.388L421.965 210.079C422.246 210.041 422.54 210.003 422.81 209.951C432.318 208.225 438.237 197.348 431.347 196.569C426.106 195.968 420.444 202.909 415.166 201.515V201.527L414.437 209.388Z" fill="#ADACAC"/>
<path d="M382.416 203.56C382.414 203.48 382.301 203.467 382.29 203.549C381.164 211.576 382.387 220.739 386.206 227.943C386.331 228.18 386.77 228.079 386.681 227.793C384.165 219.614 382.583 212.155 382.416 203.56Z" fill="#263238"/>
<path d="M391.781 201.399C391.779 201.306 391.624 201.308 391.612 201.407C390.497 209.683 392.157 219.969 397.537 227.753C397.722 228.02 398.155 228.075 397.966 227.752C394.78 222.304 391.892 209.139 391.781 201.399Z" fill="#263238"/>
<path d="M409.006 226.635C404.136 218.97 402.214 210.515 401.486 201.546C401.476 201.429 401.313 201.455 401.295 201.555C400.454 206.039 401.514 211.706 402.711 216.048C403.858 220.204 405.727 223.725 408.738 226.805C408.854 226.924 409.109 226.798 409.006 226.635Z" fill="#263238"/>
<path d="M289.944 547.971C287.018 548.942 203.478 548.699 200.295 546.68C199.094 545.926 198.416 533.744 198.02 519.02C197.93 515.838 197.867 512.566 197.816 509.217C197.753 505.268 197.7 501.267 197.675 497.381C197.573 479.934 197.816 464.572 197.816 464.572H252.201L252.176 497.381L252.163 509.217L251.883 519.02C251.883 519.02 283.824 533.426 287.07 536.019C290.302 538.603 292.859 547.012 289.944 547.971Z" fill="#AD6359"/>
<path d="M289.944 547.971C287.018 548.942 203.478 548.7 200.295 546.68C199.094 545.926 198.416 533.745 198.02 519.021C197.93 515.838 197.867 512.567 197.816 509.218C197.752 505.268 197.7 501.268 197.675 497.382H252.174L252.162 509.218L251.881 519.021C251.881 519.021 283.822 533.426 287.068 536.02C290.302 538.603 292.859 547.013 289.944 547.971Z" fill="white"/>
<path d="M290.197 548.097C288.293 548.723 252.709 548.851 226.801 548.314C220.806 548.186 215.323 548.021 210.901 547.828C204.805 547.547 200.715 547.215 200.049 546.793C198.579 545.847 197.876 527.979 197.545 509.126H252.198L251.916 518.98C251.916 518.98 284.036 533.462 287.308 536.07C290.555 538.676 293.125 547.112 290.197 548.097Z" fill="#C7C6C6"/>
<path d="M289.001 544.733C274.92 544.347 218.09 544.115 204.141 544.805C204.029 544.81 204.027 544.888 204.141 544.894C218.09 545.581 274.92 545.352 289.001 544.965C289.298 544.956 289.298 544.741 289.001 544.733Z" fill="#263238"/>
<path d="M253.916 515.859C248.378 514.809 241.598 515.639 237.351 519.576C237.186 519.728 237.406 519.959 237.585 519.904C243.057 518.198 248.166 517.107 253.89 516.56C254.295 516.52 254.312 515.934 253.916 515.859Z" fill="#263238"/>
<path d="M257.908 518.28C252.37 517.23 245.59 518.062 241.345 521.997C241.18 522.149 241.4 522.381 241.579 522.326C247.05 520.619 252.16 519.526 257.884 518.981C258.288 518.943 258.305 518.356 257.908 518.28Z" fill="#263238"/>
<path d="M261.901 520.704C256.363 519.654 249.583 520.486 245.337 524.421C245.173 524.573 245.392 524.806 245.571 524.749C251.043 523.043 256.151 521.95 261.877 521.405C262.28 521.365 262.298 520.779 261.901 520.704Z" fill="#263238"/>
<path d="M265.894 523.125C260.356 522.075 253.577 522.907 249.33 526.842C249.165 526.995 249.385 527.226 249.564 527.171C255.035 525.464 260.145 524.372 265.869 523.826C266.274 523.787 266.291 523.2 265.894 523.125Z" fill="#263238"/>
<path d="M264.186 503.073C262.017 500.068 257.959 501.405 255.64 503.342C251.885 506.48 248.592 511.386 247.069 516.011C247.031 516.125 247.107 516.194 247.198 516.211C247.214 516.632 247.59 517.079 248.065 516.906C252.646 515.224 257.751 513.995 261.678 510.958C263.973 509.186 266.237 505.916 264.186 503.073ZM254.488 512.937C252.256 513.818 249.993 514.584 247.793 515.549C249.472 513.082 251.035 510.556 252.962 508.26C253.881 507.165 254.846 506.057 255.908 505.095C257.56 503.6 264.097 500.427 263.102 506.504C262.555 509.854 257.15 511.885 254.488 512.937Z" fill="#263238"/>
<path d="M232.989 514.524C237.552 516.485 242.803 516.4 247.657 516.885C248.16 516.936 248.414 516.407 248.324 515.996C248.408 515.956 248.465 515.87 248.4 515.77C245.771 511.673 241.358 507.742 236.937 505.641C234.209 504.345 229.945 504.063 228.594 507.515C227.317 510.779 230.325 513.38 232.989 514.524ZM230.499 510.565C228.019 504.928 235.14 506.37 237.114 507.406C238.382 508.071 239.593 508.903 240.756 509.735C243.194 511.477 245.338 513.533 247.579 515.503C245.209 515.118 242.826 514.94 240.444 514.644C237.607 514.292 231.866 513.673 230.499 510.565Z" fill="#263238"/>
<path d="M259.934 505.287L192.528 506.498C192.528 506.498 183.353 446.86 177.312 409.741C175.034 395.8 173.226 385.043 172.499 381.795C170.754 374.058 136.591 251.229 136.591 251.229L185.599 251.164L202.333 251.149C202.333 251.149 201.267 271.68 201.897 273.844C210.636 303.565 228.502 356.288 234.074 374.655C242.635 402.925 259.934 505.287 259.934 505.287Z" fill="#A7A6A6"/>
<path d="M253.804 494.955C244.123 494.885 209.821 494.498 196.935 495.701C196.836 495.711 196.839 495.873 196.938 495.887C201.372 496.524 244.132 495.532 253.807 495.222C253.99 495.216 253.986 494.957 253.804 494.955Z" fill="#263238"/>
<path d="M193.629 444.125C191.299 428.7 188.715 413.312 185.837 397.981C184.421 390.433 182.881 382.905 180.912 375.479C178.921 367.965 176.431 360.597 173.898 353.251C168.865 338.644 164.022 323.979 159.52 309.2C155.021 294.434 150.778 279.579 146.854 264.649C146.356 262.755 145.853 260.866 145.312 258.985C145.267 258.827 145.038 258.901 145.071 259.058C146.604 266.583 148.586 274.038 150.5 281.476C152.416 288.92 154.446 296.331 156.575 303.716C160.855 318.553 165.486 333.291 170.504 347.895C173.006 355.173 175.596 362.427 177.808 369.802C180.019 377.164 181.75 384.648 183.284 392.176C186.398 407.446 189.041 422.824 191.505 438.21C193.981 453.678 196.052 469.192 198.114 484.718C198.376 486.685 198.633 488.653 198.885 490.622C198.957 491.177 199.83 491.17 199.769 490.601C198.104 475.065 195.963 459.574 193.629 444.125Z" fill="#263238"/>
<path d="M185.599 251.167L177.312 409.742C175.035 395.801 173.226 385.044 172.499 381.796C170.754 374.059 136.591 251.23 136.591 251.23L185.599 251.167Z" fill="#263238"/>
<path d="M206.343 561.271C203.416 562.242 119.877 562 116.694 559.98C115.494 559.226 114.816 547.045 114.419 532.321C114.329 529.138 114.266 525.866 114.215 522.517C114.152 518.568 114.1 514.568 114.074 510.682C113.971 493.235 114.215 477.872 114.215 477.872H168.6L168.575 510.682L168.562 522.517L168.28 532.321C168.28 532.321 200.222 546.726 203.468 549.32C206.701 551.902 209.257 560.313 206.343 561.271Z" fill="#AD6359"/>
<path d="M206.343 561.271C203.416 562.242 119.877 562 116.695 559.98C115.494 559.226 114.816 547.045 114.42 532.321C114.329 529.138 114.266 525.866 114.215 522.517C114.152 518.568 114.1 514.568 114.074 510.682H168.574L168.561 522.517L168.279 532.321C168.279 532.321 200.22 546.726 203.466 549.32C206.701 551.902 209.257 560.313 206.343 561.271Z" fill="white"/>
<path d="M206.595 561.396C204.691 562.022 169.108 562.15 143.199 561.613C137.204 561.485 131.721 561.319 127.298 561.127C121.202 560.847 117.111 560.514 116.446 560.093C114.976 559.147 114.274 541.278 113.941 522.426H168.594L168.313 532.28C168.313 532.28 200.433 546.761 203.704 549.369C206.952 551.977 209.521 560.413 206.595 561.396Z" fill="#C7C6C6"/>
<path d="M205.399 558.032C191.318 557.646 134.489 557.414 120.54 558.102C120.427 558.108 120.426 558.186 120.54 558.191C134.489 558.879 191.318 558.649 205.399 558.263C205.695 558.255 205.697 558.04 205.399 558.032Z" fill="#263238"/>
<path d="M170.314 529.159C164.776 528.109 157.996 528.94 153.749 532.876C153.584 533.029 153.804 533.261 153.983 533.205C159.455 531.498 164.564 530.405 170.288 529.86C170.693 529.82 170.71 529.234 170.314 529.159Z" fill="#263238"/>
<path d="M174.307 531.581C168.769 530.53 161.989 531.362 157.743 535.298C157.578 535.45 157.798 535.681 157.977 535.626C163.449 533.919 168.557 532.827 174.283 532.281C174.686 532.242 174.703 531.655 174.307 531.581Z" fill="#263238"/>
<path d="M178.3 534.002C172.761 532.952 165.982 533.782 161.736 537.719C161.571 537.871 161.791 538.102 161.97 538.048C167.442 536.341 172.551 535.248 178.276 534.703C178.679 534.665 178.696 534.078 178.3 534.002Z" fill="#263238"/>
<path d="M182.292 536.426C176.754 535.376 169.974 536.207 165.727 540.143C165.562 540.295 165.782 540.526 165.961 540.471C171.433 538.764 176.542 537.672 182.266 537.126C182.671 537.087 182.689 536.5 182.292 536.426Z" fill="#263238"/>
<path d="M180.585 516.374C178.415 513.369 174.357 514.707 172.039 516.643C168.284 519.781 164.991 524.687 163.467 529.312C163.429 529.426 163.505 529.495 163.597 529.512C163.612 529.934 163.989 530.381 164.464 530.207C169.045 528.526 174.15 527.297 178.078 524.259C180.372 522.486 182.637 519.217 180.585 516.374ZM170.888 526.238C168.656 527.119 166.393 527.886 164.193 528.85C165.872 526.383 167.435 523.857 169.362 521.561C170.281 520.466 171.246 519.358 172.308 518.397C173.96 516.901 180.496 513.727 179.502 519.805C178.954 523.155 173.55 525.186 170.888 526.238Z" fill="#263238"/>
<path d="M149.387 527.824C153.95 529.785 159.2 529.7 164.055 530.185C164.558 530.236 164.812 529.707 164.721 529.296C164.806 529.256 164.862 529.17 164.798 529.07C162.169 524.973 157.756 521.041 153.335 518.941C150.606 517.644 146.341 517.363 144.992 520.815C143.715 524.08 146.725 526.681 149.387 527.824ZM146.897 523.866C144.417 518.229 151.538 519.671 153.512 520.707C154.779 521.373 155.991 522.204 157.154 523.036C159.592 524.778 161.736 526.835 163.977 528.804C161.606 528.419 159.224 528.241 156.842 527.945C154.005 527.592 148.264 526.974 146.897 523.866Z" fill="#263238"/>
<path d="M176.227 517.782H110.245C110.245 517.782 124.57 313.3 122.256 301.835C118.465 283.069 121 261.521 129.87 251.148H188.553C188.553 251.148 189.716 267.617 183.659 277.453C183.659 277.453 178.155 280.932 175.479 282.467L176.227 517.782Z" fill="#A7A6A6"/>
<path d="M170.049 507.126C160.914 506.888 163.539 506.828 154.401 506.691C149.928 506.623 120.544 506.212 116.362 506.881C116.27 506.897 116.269 507.052 116.36 507.067C120.535 507.782 149.923 507.682 154.395 507.662C163.534 507.623 160.91 507.535 170.048 507.393C170.22 507.39 170.221 507.131 170.049 507.126Z" fill="#263238"/>
<path d="M187.317 274.812C181.524 277.49 176.037 280.985 170.819 284.586C170.614 284.727 170.795 285.038 171.02 284.913C176.602 281.826 182.309 278.829 187.711 275.451C188.133 275.187 187.761 274.607 187.317 274.812Z" fill="#263238"/>
<path d="M179.844 273.969C179.494 275.102 179.242 276.271 179.047 277.436C178.897 278.343 178.663 279.329 178.871 280.233C178.912 280.408 179.157 280.398 179.242 280.267C179.771 279.446 179.911 278.391 180.154 277.462C180.434 276.385 180.739 275.314 180.987 274.231C181.152 273.512 180.059 273.27 179.844 273.969Z" fill="#263238"/>
<path d="M179.318 268.315C179.475 267.335 179.633 266.356 179.81 265.38C179.993 264.371 180.244 263.358 180.349 262.337C180.366 262.177 180.625 262.224 180.598 262.388C180.444 263.369 180.426 264.381 180.349 265.372C180.27 266.367 180.175 267.359 180.075 268.352C179.889 270.2 179.573 272.063 179.207 273.89C180.16 273.661 181.134 273.399 181.905 272.771C182.742 272.088 183.089 270.958 183.349 269.947C183.638 268.825 183.881 267.691 184.187 266.574C184.525 265.338 184.928 264.101 185.045 262.819C185.059 262.657 185.316 262.705 185.296 262.87C184.972 265.535 184.66 268.194 183.803 270.775C183.466 271.788 183.24 272.816 182.328 273.389C181.348 274.005 180.168 274.193 179.042 274.362C178.914 274.431 178.718 274.383 178.728 274.207C178.839 272.248 179.008 270.252 179.318 268.315Z" fill="#263238"/>
<path d="M131.783 301.085C131.363 296.772 130.661 292.491 130.191 288.184C129.245 279.521 129.896 270.861 131.752 262.357C131.788 262.198 131.538 262.137 131.507 262.297C130.075 269.802 128.825 277.298 129.201 284.97C129.573 292.572 130.921 300.073 131.043 307.697C131.167 315.419 130.56 323.135 130.065 330.833C129.568 338.579 129.069 346.326 128.571 354.072C126.568 385.207 124.722 416.352 122.826 447.493C122.297 456.186 121.805 464.88 121.302 473.573C120.791 482.42 120.173 491.271 119.845 500.126C119.817 500.892 120.955 500.835 121.017 500.098C122.341 484.478 123.108 468.791 124.104 453.145C125.091 437.657 125.997 422.162 126.943 406.672C127.889 391.182 128.818 375.692 129.738 360.199C130.198 352.456 130.636 344.71 131.082 336.965C131.526 329.251 132.096 321.531 132.211 313.802C132.278 309.559 132.195 305.308 131.783 301.085Z" fill="#263238"/>
<path d="M152.559 261.82C152.517 261.724 152.388 261.693 152.328 261.796C151.845 262.63 151.931 264.007 151.773 264.959C151.583 266.116 151.34 267.255 150.971 268.367C150.221 270.628 149.212 272.641 147.449 274.29C143.754 277.748 138.81 279.025 134.04 280.193C133.862 280.237 133.927 280.478 134.088 280.489C136.893 280.689 139.745 280.089 142.398 279.188C144.741 278.393 146.999 277.298 148.819 275.595C150.627 273.902 151.752 271.726 152.285 269.319C152.557 268.087 152.634 266.779 152.681 265.52C152.703 264.908 152.709 264.295 152.707 263.682C152.707 263.083 152.808 262.371 152.559 261.82Z" fill="#263238"/>
<path d="M180.196 182.679C181.411 192.258 200.187 227.888 220.17 243.677C227.5 249.469 266.359 252.899 276.077 252.153C287.462 251.28 289.168 224.195 282.791 222.081C274.834 219.443 237.989 216.194 230.751 213.573C221.953 210.386 205.944 189.934 190.729 177.276C182.899 170.761 179.26 175.3 180.196 182.679Z" fill="#AD6359"/>
<path d="M276.077 252.152C279.676 252.056 296.131 250.166 300.592 248.615C305.053 247.065 317.568 241.672 316.727 238.135C315.887 234.597 312.096 235.884 312.096 235.884C312.096 235.884 317.02 232.771 315.85 229.288C314.68 225.805 308.849 227.998 308.849 227.998C308.849 227.998 313.672 224.432 312.257 221.041C310.84 217.649 305.347 220.838 305.347 220.838C305.347 220.838 309.91 217.783 307.567 215.48C304.75 212.71 296.975 219.293 291.922 220.635C290.774 220.939 268.222 225.156 268.222 225.156L276.077 252.152Z" fill="#AD6359"/>
<path d="M305.824 220.575C300.096 225.402 296.754 226.523 289.448 227.531C289.306 227.55 289.303 227.768 289.454 227.76C296.697 227.425 301.092 226.623 306.072 220.84C306.316 220.556 306.097 220.345 305.824 220.575Z" fill="#263238"/>
<path d="M309.296 227.606C302.908 232.1 299.294 233.349 291.721 234.967C291.614 234.989 291.641 235.174 291.752 235.16C299.314 234.193 303.681 233.294 309.474 227.964C309.735 227.723 309.59 227.4 309.296 227.606Z" fill="#263238"/>
<path d="M311.709 235.955C305.209 239.86 301.306 241.399 293.753 242.026C293.575 242.04 293.579 242.302 293.76 242.305C301.525 242.414 306.41 240.531 311.807 236.165C312.175 235.868 312.117 235.71 311.709 235.955Z" fill="#263238"/>
<path d="M262.952 222.199C262.952 222.199 270.869 217.156 274.836 215.707C278.802 214.259 295.573 214.301 295.769 217.922C296.023 222.599 286.338 224.482 281.472 224.784C281.472 224.784 282.07 235.602 275.41 238.458C268.75 241.314 262.952 222.199 262.952 222.199Z" fill="#AD6359"/>
<path d="M295.417 219.231C292.571 223.662 286.16 223.647 281.464 224.294C281.107 224.343 281.021 224.648 281.111 224.913C281.059 229.464 279.66 235.869 275.686 238.568C275.569 238.647 275.666 238.823 275.793 238.76C280.449 236.444 282.336 230.263 282.075 225.275C286.903 224.689 293.333 224.421 295.46 219.256C295.473 219.227 295.435 219.203 295.417 219.231Z" fill="#263238"/>
<path d="M242.505 251.625C242.505 251.625 222.601 246.187 220.18 244.284C217.538 242.211 215.019 239.967 212.623 237.6C194.522 219.795 183.577 195.554 180.611 187.024C177.495 178.02 180.37 169.398 188.757 175.205C189.376 175.64 190.019 176.149 190.701 176.736C200.576 185.337 226.947 211.481 230.141 212.828C233.325 214.156 248.854 216.19 248.854 216.19L242.505 251.625Z" fill="#555454"/>
<path d="M212.623 237.602C194.522 219.797 183.577 195.556 180.611 187.025C177.495 178.021 180.37 169.399 188.757 175.206L212.623 237.602Z" fill="#263238"/>
<path d="M242.428 215.619C241.421 218.286 240.803 221.149 240.125 223.914C239.442 226.704 238.747 229.493 238.139 232.301C236.942 237.828 235.826 243.438 235.261 249.067C235.247 249.213 235.475 249.255 235.515 249.113C237.037 243.589 238.164 237.934 239.327 232.325C239.901 229.56 240.428 226.783 241.002 224.016C241.574 221.255 242.273 218.451 242.578 215.646C242.586 215.556 242.458 215.542 242.428 215.619Z" fill="#263238"/>
<path d="M199.5 202.196C199.976 204.289 200.342 206.454 200.615 208.624C200.623 208.54 200.635 208.459 200.643 208.375C200.753 207.175 200.843 205.95 201.048 204.761C201.059 204.699 201.16 204.687 201.166 204.759C201.262 205.961 201.17 207.22 201.027 208.416C200.957 208.989 200.884 209.561 200.798 210.132C200.9 211.104 200.983 212.074 201.041 213.035C201.151 214.866 201.504 222.685 201.469 224.033C201.462 224.316 201.134 224.34 201.073 224.042C200.795 222.66 200.095 214.606 199.903 212.792C199.534 209.307 199.348 205.702 199.36 202.198C199.362 202.116 199.483 202.123 199.5 202.196Z" fill="#263238"/>
<path d="M201.746 260.741C198.962 263.282 195.488 266.992 175.692 268.368C174.453 268.447 173.193 268.476 171.915 268.445C152.858 267.911 126.119 252.892 124.533 251.754C124.533 251.754 145.069 196.196 172.228 174.86C176.108 171.811 184.426 173.322 189.625 176.459C191.483 177.58 197.634 187.868 198.865 197.22C200.081 206.561 204.558 258.209 201.746 260.741Z" fill="#555454"/>
<path d="M186.306 190.318C181.513 190.701 174.66 182.418 172.404 176.209C172.251 175.783 173.489 171.736 174.759 166.748C175.517 163.717 176.291 160.326 176.775 157.182C176.87 156.535 178.887 158.058 178.887 158.058L182.807 159.667L195.769 165.002C195.769 165.002 192.818 171.298 192.01 176.788C191.948 177.248 191.927 177.68 191.948 178.1C191.945 178.161 191.952 178.236 191.944 178.319C191.966 180.832 190.937 189.943 186.306 190.318Z" fill="#797878"/>
<path d="M191.946 178.101C191.944 178.161 191.951 178.236 191.942 178.319C191.311 178.312 190.633 178.245 189.898 178.115C176.659 175.781 177.59 158.634 177.59 158.634L182.806 159.667L195.768 165.002C195.768 165.002 192.816 171.298 192.008 176.789C191.946 177.248 191.927 177.681 191.946 178.101Z" fill="#263238"/>
<path d="M175.428 136.555C172.91 143.513 175.601 164.123 180.396 168.933C187.348 175.906 199.249 177.145 205.303 168.671C211.172 160.456 207.19 133.658 201.786 129.235C193.825 122.717 179.148 126.276 175.428 136.555Z" fill="#797878"/>
<path d="M194.21 150.819C194.193 150.768 194.11 150.898 194.118 150.955C194.337 152.338 194.353 153.961 193.154 154.579C193.117 154.599 193.13 154.668 193.175 154.655C194.683 154.247 194.638 152.094 194.21 150.819Z" fill="#263238"/>
<path d="M192.786 149.524C190.531 149.636 190.918 154.138 193.008 154.035C195.065 153.933 194.677 149.431 192.786 149.524Z" fill="#263238"/>
<path d="M202.748 149.895C202.754 149.841 202.863 149.951 202.867 150.009C202.943 151.407 203.266 152.996 204.567 153.351C204.608 153.362 204.609 153.433 204.563 153.43C203.004 153.345 202.596 151.231 202.748 149.895Z" fill="#263238"/>
<path d="M203.869 148.331C206.097 147.967 206.66 152.452 204.596 152.787C202.564 153.12 202 148.635 203.869 148.331Z" fill="#263238"/>
<path d="M191.028 146.246C191.628 146.038 192.147 145.747 192.719 145.482C193.365 145.181 193.91 145.008 194.295 144.374C194.501 144.033 194.354 143.466 194.043 143.235C193.316 142.695 192.433 142.867 191.642 143.197C190.783 143.555 190.212 144.051 189.773 144.87C189.346 145.661 190.237 146.519 191.028 146.246Z" fill="#263238"/>
<path d="M205.287 146.802C204.654 146.754 204.079 146.605 203.457 146.492C202.757 146.365 202.186 146.337 201.652 145.82C201.365 145.542 201.364 144.957 201.606 144.654C202.172 143.948 203.07 143.89 203.919 144.007C204.841 144.135 205.519 144.469 206.152 145.15C206.765 145.811 206.121 146.866 205.287 146.802Z" fill="#263238"/>
<path d="M194.1 163.409C194.462 163.707 194.834 164.128 195.344 164.127C195.834 164.125 196.383 163.857 196.813 163.646C196.855 163.625 196.905 163.668 196.879 163.712C196.564 164.279 195.831 164.679 195.174 164.621C194.533 164.565 194.175 164.046 193.97 163.482C193.943 163.405 194.046 163.367 194.1 163.409Z" fill="#263238"/>
<path d="M200.79 157.462C200.79 157.462 201.062 159.54 201.055 160.52C201.054 160.611 198.268 160.356 195.392 161.303C194.96 161.446 194.967 161.083 195.452 160.796C196.423 160.222 197.672 159.649 200.219 159.661C200.29 159.391 199.741 156.47 199.896 156.459C200.432 156.417 201.484 156.789 202.116 156.979C201.675 152.633 200.541 148.395 200.167 144.061C200.157 143.906 200.379 143.86 200.424 143.999C201.926 148.357 202.544 153.347 203.114 157.822C203.192 158.381 201.181 157.632 200.79 157.462Z" fill="#263238"/>
<path d="M176.928 153.733C180.477 153.478 180.029 144.803 180.029 144.803C180.029 144.803 185.436 143.764 187.996 136.297C187.996 136.297 195.019 140.589 200.854 139.455C209.997 137.677 209.604 125.775 206.146 123.392C201.245 120.013 192.647 125.126 192.647 125.126C192.647 125.126 179.501 121.636 175.708 130.545C175.708 130.545 169.868 130.872 169.544 137.331C169.219 143.789 174.283 153.924 176.928 153.733Z" fill="#263238"/>
<path d="M178.768 145.84C181.364 145.295 183.828 144.061 185.569 142.016C187.365 139.905 188.378 136.684 187.558 133.972C187.513 133.824 187.758 133.765 187.793 133.918C188.481 136.938 188.34 140.051 186.444 142.629C184.708 144.992 181.749 146.48 178.795 146.102C178.652 146.084 178.613 145.873 178.768 145.84Z" fill="#263238"/>
<path d="M169.029 133.556C170.804 131.247 173.557 130.856 176.28 130.918C176.436 130.92 176.424 131.174 176.27 131.159C173.586 130.885 170.91 132.706 169.54 134.918C168.196 137.086 168.54 139.789 169.122 142.157C170.24 146.701 172.97 150.779 176.859 153.402C176.924 153.446 176.861 153.545 176.795 153.504C172.384 150.775 169.135 146.303 168.115 141.194C167.618 138.701 167.393 135.686 169.029 133.556Z" fill="#263238"/>
<path d="M192.293 125.562C193.508 123.669 195.141 122.291 197.278 121.643C199.738 120.897 202.584 121.196 204.891 122.324C206.848 123.279 207.957 125.258 208.126 127.433C208.319 129.914 207.187 132.262 205.81 134.224C205.771 134.281 205.685 134.226 205.721 134.165C206.831 132.312 207.681 130.217 207.518 128C207.359 125.803 206.174 123.973 204.184 123.117C200.406 121.492 194.907 121.835 192.493 125.69C192.41 125.822 192.21 125.693 192.293 125.562Z" fill="#263238"/>
<path d="M178.942 153.418C178.942 153.418 174.526 146.666 171.476 148.221C168.426 149.775 171.604 159.463 175.085 160.883C178.565 162.302 179.942 159.107 179.942 159.107L178.942 153.418Z" fill="#797878"/>
<path d="M172.456 150.977C172.399 150.97 172.385 151.049 172.434 151.071C174.872 152.147 176.101 154.476 176.938 156.878C176.232 155.942 175.248 155.41 173.998 156.246C173.931 156.29 173.991 156.393 174.061 156.38C175.079 156.194 175.803 156.393 176.461 157.223C176.927 157.811 177.235 158.547 177.561 159.219C177.669 159.443 178.071 159.337 177.995 159.081C177.989 159.063 177.982 159.043 177.977 159.023C178.136 155.878 175.826 151.399 172.456 150.977Z" fill="#263238"/>
<path d="M46.0479 587.821H0V579.364H46.0479C82.5335 579.364 92.9302 548.148 95.2277 521.962C97.0277 501.448 98.1356 476.469 99.3069 450.025C103.692 351.107 108.228 248.822 148.033 248.822H184.5V257.279H148.033C116.317 257.279 111.368 368.9 107.756 450.4C106.58 476.939 105.468 502.004 103.652 522.701C99.9694 564.695 79.5115 587.821 46.0479 587.821Z" fill="#C7C6C6"/>
<path opacity="0.2" d="M184.507 248.821V257.278H155.415L153.61 248.821H184.507Z" fill="black"/>
<path d="M311.06 307.679H326.587V199.167H311.06V307.679Z" fill="#C7C6C6"/>
<path d="M311.06 204.322H252.023V301.412H311.06V204.322Z" fill="#C7C6C6"/>
<path opacity="0.2" d="M311.055 204.325V301.416H296.394L289.819 204.325H311.055Z" fill="black"/>
<path d="M162.604 261.702H206.396V244.404H162.604V261.702Z" fill="#FFC727"/>
<path d="M206.396 244.403H162.596V261.694H206.396V244.403Z" fill="#9F9E9E"/>
<path opacity="0.2" d="M191 262.291L192.436 245H206.377V262.291H191Z" fill="#848383"/>
<path d="M215.066 211.187H252.028V295.669H215.066C210.278 295.669 206.396 291.788 206.396 286.999V219.857C206.398 215.068 210.278 211.187 215.066 211.187Z" fill="#C7C6C6"/>
<path opacity="0.2" d="M232.606 295.665L239.181 211.182H252.023V295.665H232.606Z" fill="black"/>
<g opacity="0.2">
<path d="M236.01 278.59H238.921V228.264H236.01V278.59Z" fill="black"/>
<path d="M227.757 278.59H230.668V228.264H227.757V278.59Z" fill="black"/>
<path d="M219.505 278.59H222.415V228.264H219.505V278.59Z" fill="black"/>
</g>
<path d="M159.907 194.329C158.427 214.681 156.897 256.145 165.887 268.306C177.684 284.265 210.96 293.946 220.801 296.844C225.089 298.107 235.17 270.098 232.657 266.033C230.144 261.968 195.768 253.305 193.057 250.975C190.347 248.646 181.839 215.566 177.71 198.742C172.502 177.52 160.492 186.297 159.907 194.329Z" fill="#797878"/>
<path d="M258.108 276.798C263.544 278.098 271.776 275.312 272.041 279.461C272.278 283.156 266.387 284.533 266.387 284.533C266.387 284.533 273.524 285.127 272.647 289.178C271.77 293.229 265.007 293.415 265.007 293.415C265.007 293.415 271.542 294.308 270.377 298.286C269.213 302.262 262.925 302.805 262.925 302.805C262.925 302.805 264.586 304.041 262.501 306.481C259.517 309.971 249.602 309.561 244.476 308.118C239.35 306.674 221.646 297.603 218.961 296.162L227.939 263.179C227.939 263.179 238.24 261.538 243.564 261.344C248.889 261.149 266.608 265.379 265.856 269.848C265.103 274.316 252.64 271.115 249.418 270.999C246.196 270.884 245.619 271.609 247.031 272.791C247.96 273.564 255.701 276.223 258.108 276.798Z" fill="#797878"/>
<path d="M266.082 284.459C257.74 285.794 253.86 284.936 246.215 281.664C246.065 281.601 245.937 281.808 246.086 281.89C253.282 285.776 257.994 287.555 266.168 284.861C266.567 284.729 266.478 284.396 266.082 284.459Z" fill="#263238"/>
<path d="M265.35 293.273C256.565 293.904 252.349 293.009 244.089 290.171C243.972 290.13 243.892 290.325 244.007 290.375C251.877 293.837 256.618 295.505 265.314 293.723C265.705 293.64 265.752 293.244 265.35 293.273Z" fill="#263238"/>
<path d="M262.827 302.742C254.278 302.738 249.611 301.957 241.946 298.172C241.766 298.083 241.618 298.339 241.791 298.446C249.232 303.065 255.047 304.084 262.799 303.003C263.329 302.928 263.366 302.742 262.827 302.742Z" fill="#263238"/>
<path d="M194.848 290.234C194.848 290.234 167.968 276.738 163.899 266.388C158.822 253.474 156.749 215.825 158.722 196.51C160.695 177.196 174.142 179.534 178.529 196.675C182.791 213.327 192.305 246.615 193.281 248.171C194.545 250.191 209.872 253.977 209.872 253.977" fill="#555454"/>
<path d="M192.159 243.866C191.694 242.266 190.884 238.676 190.413 237.131C189.467 234.022 188.53 230.911 187.557 227.808C186.583 224.703 185.625 221.592 184.586 218.508C184.411 217.988 184.245 217.453 184.073 216.927C184.157 216.594 183.768 212.502 183.799 211.499C183.803 211.339 183.547 211.335 183.558 211.485C183.636 212.485 183.53 213.49 183.465 214.49C183.452 214.676 183.465 214.863 183.464 215.049C182.817 213.024 182.173 210.997 181.496 209.035C181.444 208.885 181.217 208.94 181.261 209.086C182.532 213.31 183.149 215.98 184.06 219.401C184.945 222.723 185.946 226.013 186.923 229.308C187.901 232.608 188.945 235.888 189.974 239.172C190.406 240.546 191.397 243.698 192.01 244.926C192.612 246.131 192.644 245.532 192.159 243.866Z" fill="#263238"/>
<path d="M161.843 255.236C161.287 251.751 160.746 248.263 160.317 244.758C159.462 237.755 158.943 230.763 158.606 223.716C158.415 219.695 158.117 215.679 157.892 211.662C157.88 211.463 157.584 211.47 157.583 211.669C157.567 215.245 157.463 218.821 157.559 222.399C157.573 222.917 157.597 223.435 157.613 223.953C157.552 223.712 157.5 223.47 157.438 223.229C156.92 221.179 156.186 219.178 155.729 217.114C155.7 216.976 155.484 217.04 155.518 217.178C156.037 219.237 156.293 221.357 156.785 223.425C157.03 224.456 157.283 225.483 157.57 226.503C157.613 226.654 157.668 226.799 157.714 226.949C157.797 229.006 157.896 231.064 158.027 233.122C158.474 240.192 159.171 247.209 160.467 254.183C161.779 261.244 162.956 263.734 164.146 267.558C164.188 267.694 164.394 267.632 164.357 267.495C163.448 264.083 162.398 258.722 161.843 255.236Z" fill="#263238"/>
<path d="M204.766 253.966C203.228 256.431 202.04 259.168 200.811 261.798C199.572 264.45 198.321 267.101 197.154 269.785C194.857 275.07 192.624 280.456 190.937 285.97C190.893 286.113 191.114 286.2 191.181 286.066C193.802 280.847 196.055 275.42 198.337 270.045C199.462 267.394 200.541 264.724 201.665 262.073C202.787 259.426 204.044 256.763 204.907 254.021C204.935 253.935 204.809 253.895 204.766 253.966Z" fill="#263238"/>
<path d="M231.047 115.694C231.201 115.503 231.47 115.483 231.642 115.637C232.64 116.443 234.311 117.385 236.059 117.365C237.23 117.365 238.288 117.019 239.016 116.481C239.766 115.944 240.169 115.234 240.169 114.484C240.169 113.715 239.804 113.139 239.074 112.64C238.344 112.161 237.269 111.794 235.963 111.546H235.925C234.678 111.315 233.583 110.97 232.757 110.413C231.931 109.876 231.374 109.068 231.374 108.07C231.374 107.051 231.931 106.169 232.776 105.554C233.622 104.94 234.754 104.575 236.023 104.575C237.789 104.575 239.115 105.439 240.171 106.131C240.362 106.265 240.42 106.514 240.285 106.726C240.171 106.917 239.902 106.975 239.708 106.841C238.653 106.149 237.5 105.419 236.021 105.419C234.926 105.419 233.946 105.746 233.274 106.225C232.602 106.724 232.218 107.378 232.218 108.07C232.237 108.743 232.544 109.242 233.216 109.703C233.888 110.163 234.888 110.49 236.097 110.72H236.135C237.48 110.97 238.671 111.353 239.555 111.949C240.437 112.526 241.033 113.408 241.033 114.484C241.033 115.559 240.417 116.519 239.515 117.173C238.612 117.826 237.402 118.229 236.058 118.229C234.003 118.209 232.217 117.173 231.102 116.289C230.933 116.137 230.913 115.868 231.047 115.694Z" fill="#302F2F"/>
<path d="M250.364 104.575C253.956 104.575 256.779 107.628 256.799 111.393C256.779 115.157 253.956 118.21 250.364 118.21C246.735 118.21 243.892 115.156 243.874 111.393C243.893 107.629 246.735 104.575 250.364 104.575ZM250.364 117.27C253.323 117.27 255.819 114.677 255.839 111.393C255.819 108.07 253.323 105.535 250.364 105.535C247.31 105.535 244.814 108.07 244.814 111.393C244.815 114.677 247.311 117.27 250.364 117.27Z" fill="#302F2F"/>
<path d="M267.474 115.176C267.474 114.197 266.975 113.582 266.379 113.141C265.784 112.718 265.072 112.507 264.823 112.469C264.765 112.449 264.745 112.431 264.727 112.431H261.462V117.75C261.462 118 261.251 118.211 260.982 118.211C260.732 118.211 260.521 118 260.521 117.75V105.228C260.521 104.997 260.712 104.787 260.942 104.767H260.98H261.038H264.783C266.895 104.767 268.604 106.475 268.604 108.608C268.604 110.144 267.702 111.469 266.396 112.084C266.453 112.122 266.511 112.142 266.587 112.18C267.471 112.68 268.393 113.658 268.393 115.176C268.393 115.964 268.471 116.444 268.566 116.733C268.644 116.964 268.74 117.04 268.758 117.06C268.969 117.04 269.201 117.155 269.277 117.367C269.335 117.616 269.219 117.886 268.969 117.981C268.95 117.981 268.854 118.001 268.738 118.001H268.7C268.451 118.001 268.048 117.809 267.836 117.387C267.608 116.943 267.474 116.31 267.474 115.176ZM264.785 105.707H261.462V111.507H264.689H264.862C266.418 111.469 267.685 110.182 267.685 108.607C267.685 106.994 266.379 105.707 264.785 105.707Z" fill="#302F2F"/>
<path d="M279.474 115.176C279.474 114.197 278.974 113.582 278.379 113.141C277.784 112.718 277.072 112.507 276.823 112.469C276.765 112.449 276.745 112.431 276.727 112.431H273.463V117.75C273.463 118 273.251 118.211 272.982 118.211C272.732 118.211 272.521 118 272.521 117.75V105.228C272.521 104.997 272.713 104.787 272.944 104.767H272.982H273.04H276.785C278.898 104.767 280.607 106.475 280.607 108.608C280.607 110.144 279.704 111.469 278.399 112.084C278.457 112.122 278.513 112.142 278.59 112.18C279.474 112.68 280.396 113.658 280.396 115.176C280.396 115.964 280.474 116.444 280.568 116.733C280.646 116.964 280.741 117.04 280.76 117.06C280.971 117.04 281.202 117.155 281.278 117.367C281.336 117.616 281.221 117.886 280.971 117.981C280.951 117.981 280.856 118.001 280.74 118.001H280.702C280.452 118.001 280.049 117.809 279.838 117.387C279.608 116.943 279.474 116.31 279.474 115.176ZM276.785 105.707H273.463V111.507H276.689H276.861C278.417 111.469 279.686 110.182 279.686 108.607C279.686 106.994 278.379 105.707 276.785 105.707Z" fill="#302F2F"/>
<path d="M287.997 111.758L283.484 105.593C283.35 105.382 283.388 105.074 283.58 104.94C283.791 104.767 284.099 104.805 284.233 105.017L288.439 110.798L292.664 105.017C292.8 104.805 293.106 104.767 293.317 104.94C293.528 105.074 293.566 105.382 293.413 105.593L288.919 111.72V117.75C288.919 118 288.728 118.211 288.458 118.211C288.209 118.211 287.997 118 287.997 117.75V111.758Z" fill="#302F2F"/>
<path d="M295.696 105.228C295.696 104.978 295.907 104.767 296.156 104.767C296.426 104.767 296.637 104.978 296.637 105.228V114.869C296.637 115.138 296.426 115.349 296.156 115.349C295.907 115.349 295.696 115.138 295.696 114.869V105.228ZM295.696 117.289C295.696 117.039 295.907 116.828 296.156 116.828C296.426 116.828 296.637 117.039 296.637 117.289V117.75C296.637 117.999 296.426 118.211 296.156 118.211C295.907 118.211 295.696 117.999 295.696 117.75V117.289Z" fill="#302F2F"/>
<path d="M306.505 105.228C306.505 104.978 306.717 104.767 306.966 104.767H307.024H310.769C312.882 104.767 314.592 106.495 314.592 108.608C314.592 110.72 312.882 112.43 310.769 112.43L307.447 112.468V117.75C307.447 117.999 307.236 118.211 306.966 118.211C306.717 118.211 306.505 117.999 306.505 117.75V105.228ZM310.769 111.528C312.363 111.508 313.67 110.203 313.67 108.609C313.67 107.015 312.365 105.708 310.769 105.708H307.447V111.528H310.769Z" fill="#302F2F"/>
<path d="M323.71 114.734H317.583L316.392 117.904C316.315 118.096 316.143 118.211 315.951 118.211C315.913 118.211 315.835 118.192 315.778 118.192C315.546 118.096 315.413 117.808 315.508 117.577L320.175 105.113C320.251 104.939 320.443 104.824 320.636 104.824C320.848 104.824 321.039 104.939 321.097 105.113L325.764 117.577C325.86 117.808 325.744 118.096 325.515 118.192C325.437 118.192 325.399 118.211 325.341 118.211C325.168 118.211 324.976 118.096 324.9 117.904L323.71 114.734ZM317.93 113.794H323.365L320.657 106.572L317.93 113.794Z" fill="#302F2F"/>
<path d="M334.424 112.162C334.155 112.162 333.944 111.969 333.944 111.701C333.944 111.432 334.155 111.221 334.424 111.221H338.573H338.63C338.862 111.24 339.053 111.45 339.053 111.701V116.31V116.388C339.034 116.522 338.976 116.657 338.88 116.733C337.689 117.675 336.191 118.212 334.539 118.212C330.678 118.192 327.547 115.177 327.547 111.374C327.547 107.629 330.678 104.576 334.539 104.576C336.21 104.576 337.689 105.153 338.898 106.093C339.072 106.227 339.129 106.554 338.955 106.745C338.801 106.937 338.513 106.975 338.284 106.823C337.304 106.017 335.979 105.516 334.539 105.516C331.177 105.516 328.489 108.148 328.489 111.374C328.489 114.639 331.177 117.272 334.539 117.272C335.845 117.272 337.094 116.849 338.092 116.119V112.162H334.424Z" fill="#302F2F"/>
<path d="M343.772 105.228C343.772 104.978 343.983 104.767 344.233 104.767H344.271H351.147C351.416 104.767 351.608 104.978 351.608 105.228C351.608 105.497 351.416 105.708 351.147 105.708H344.714V111.028H350.34C350.59 111.028 350.801 111.239 350.801 111.508C350.801 111.758 350.59 111.969 350.34 111.969H344.714V117.271H351.147C351.416 117.271 351.608 117.482 351.608 117.75C351.608 117.999 351.416 118.211 351.147 118.211H344.291H344.233H344.195C343.965 118.191 343.772 117.999 343.772 117.75V105.228Z" fill="#302F2F"/>
<path d="M361.897 106.745V117.751C361.897 118.001 361.685 118.212 361.436 118.212C361.185 118.212 360.975 118.001 360.975 117.751V105.421C360.917 105.229 360.975 105.037 361.148 104.902C361.358 104.768 361.665 104.806 361.801 105.017L369.944 116.311V105.363C369.944 105.113 370.155 104.902 370.405 104.902C370.674 104.902 370.885 105.113 370.885 105.363V117.751C370.885 118.001 370.674 118.212 370.405 118.212C370.251 118.212 370.137 118.154 370.039 118.039C370.02 118.019 369.982 118.001 369.962 117.961L361.897 106.745Z" fill="#302F2F"/>
<path d="M380.66 104.575C384.252 104.575 387.075 107.628 387.093 111.393C387.073 115.157 384.25 118.21 380.66 118.21C377.031 118.21 374.188 115.156 374.169 111.393C374.188 107.629 377.031 104.575 380.66 104.575ZM380.66 117.27C383.619 117.27 386.114 114.677 386.133 111.393C386.114 108.07 383.619 105.535 380.66 105.535C377.606 105.535 375.108 108.07 375.108 111.393C375.108 114.677 377.606 117.27 380.66 117.27Z" fill="#302F2F"/>
<path d="M393.503 105.708H389.45C389.2 105.708 388.99 105.497 388.99 105.228C388.99 104.978 389.2 104.767 389.45 104.767H398.476C398.727 104.767 398.937 104.978 398.937 105.228C398.937 105.497 398.727 105.708 398.476 105.708H394.423V117.751C394.423 118.001 394.213 118.212 393.964 118.212C393.713 118.212 393.503 118.001 393.503 117.751V105.708Z" fill="#302F2F"/>
<path d="M408.229 105.228C408.229 104.978 408.422 104.786 408.67 104.767H408.748H415.624C415.873 104.767 416.085 104.978 416.085 105.228C416.085 105.497 415.873 105.708 415.624 105.708H409.171V111.028H414.817C415.085 111.028 415.298 111.239 415.298 111.508C415.298 111.758 415.087 111.969 414.817 111.969H409.171V117.751C409.171 118.001 408.959 118.212 408.69 118.212C408.441 118.212 408.229 118.001 408.229 117.751V105.228Z" fill="#302F2F"/>
<path d="M425.359 104.575C428.95 104.575 431.774 107.628 431.792 111.393C431.772 115.157 428.949 118.21 425.359 118.21C421.729 118.21 418.886 115.156 418.868 111.393C418.886 107.629 421.729 104.575 425.359 104.575ZM425.359 117.27C428.317 117.27 430.812 114.677 430.832 111.393C430.812 108.07 428.317 105.535 425.359 105.535C422.304 105.535 419.807 108.07 419.807 111.393C419.807 114.677 422.304 117.27 425.359 117.27Z" fill="#302F2F"/>
<path d="M434.936 105.228C434.936 104.978 435.147 104.767 435.397 104.767C435.666 104.767 435.877 104.978 435.877 105.228V112.776C435.877 115.252 437.894 117.251 440.353 117.269C442.849 117.249 444.866 115.252 444.866 112.776V105.228C444.866 104.978 445.076 104.767 445.327 104.767C445.595 104.767 445.807 104.978 445.807 105.228V112.776C445.807 115.772 443.366 118.211 440.353 118.211C437.376 118.211 434.936 115.772 434.936 112.776V105.228Z" fill="#302F2F"/>
<path d="M451.238 106.745V117.751C451.238 118.001 451.027 118.212 450.778 118.212C450.527 118.212 450.317 118.001 450.317 117.751V105.421C450.259 105.229 450.317 105.037 450.49 104.902C450.7 104.768 451.007 104.806 451.143 105.017L459.285 116.311V105.363C459.285 105.113 459.497 104.902 459.746 104.902C460.014 104.902 460.227 105.113 460.227 105.363V117.751C460.227 118.001 460.016 118.212 459.746 118.212C459.593 118.212 459.479 118.154 459.381 118.039C459.362 118.019 459.323 118.001 459.304 117.961L451.238 106.745Z" fill="#302F2F"/>
<path d="M464.603 118.211H464.526C464.296 118.191 464.103 118 464.103 117.75V105.228C464.103 104.979 464.314 104.767 464.564 104.767H464.622H467.08C470.787 104.767 473.802 107.802 473.802 111.509C473.802 115.216 470.787 118.211 467.08 118.211H464.603ZM467.08 117.27C470.268 117.27 472.862 114.696 472.862 111.507C472.862 108.299 470.268 105.726 467.08 105.707H465.045V117.27H467.08Z" fill="#302F2F"/>
<path d="M301.588 67.1471C301.588 71.1967 298.322 74.3315 294.273 74.3315H292.968V84.2602C292.968 88.3097 289.833 91.4445 285.783 91.4445C281.734 91.4445 278.597 88.3097 278.597 84.2602V74.3315H237.71H237.579H237.448C235.88 74.3315 234.313 73.9396 233.006 72.7641C229.74 70.2819 229.349 65.8419 231.831 62.7057L280.165 2.61468C280.296 2.61468 280.296 2.48359 280.427 2.35391C280.558 2.22283 280.688 2.09174 280.819 1.83098C281.209 1.6999 281.34 1.57021 281.471 1.43913C281.603 1.30804 281.863 1.17696 281.994 1.04728C282.257 0.916193 282.386 0.785111 282.777 0.785111C282.908 0.524349 283.039 0.393263 283.3 0.393263C283.431 0.262177 283.691 0.262175 284.085 0.131089C284.216 0.131089 284.475 0.131086 284.606 0C284.868 0 285.26 0 285.521 0C285.521 0 285.652 0 285.783 0C285.914 0 285.914 0 286.043 0C286.303 0 286.697 0 286.828 0C287.09 0.131086 287.22 0.131089 287.482 0.131089C287.611 0.262175 288.003 0.262177 288.264 0.393263C288.395 0.393263 288.656 0.524347 288.787 0.524347C289.049 0.785109 289.308 0.916194 289.44 1.04587C289.702 1.17696 289.831 1.30804 290.094 1.43772C290.094 1.43772 290.225 1.43772 290.225 1.56881C290.356 1.56881 290.616 1.69848 290.616 1.82957C290.879 2.09174 291.007 2.22142 291.138 2.35251C291.269 2.48218 291.4 2.74435 291.53 2.87403C291.661 3.00512 291.792 3.1362 292.053 3.52664C292.053 3.65773 292.184 3.91849 292.315 4.04958C292.446 4.31034 292.446 4.44142 292.577 4.83327C292.577 4.96295 292.707 5.22512 292.707 5.3548C292.838 5.61697 292.838 5.74665 292.838 6.1385C292.838 6.40067 292.969 6.53034 292.969 6.79111C292.969 6.92219 292.969 7.05187 292.969 7.18296V59.9585H294.274C298.322 59.9627 301.588 63.2286 301.588 67.1471ZM278.597 27.6958L252.602 59.9627H278.597V27.6958Z" fill="#302F2F"/>
<path d="M318.817 45.7233C318.948 33.7057 321.952 22.8622 327.7 14.5023C333.186 6.14234 341.677 0.00244141 351.996 0.00244141C362.056 0.00244141 370.676 6.14234 376.164 14.5023C381.779 22.8622 384.914 33.7057 384.914 45.7233C384.914 57.6098 381.779 68.583 376.164 76.9429C370.675 85.1732 362.054 91.4427 351.996 91.4427C341.675 91.4427 333.184 85.1732 327.7 76.9429C321.952 68.583 318.948 57.6098 318.817 45.7233ZM370.415 45.7233C370.415 36.3175 367.804 28.0887 364.146 22.4703C360.357 16.9844 356.048 14.3712 351.997 14.5023C347.948 14.3712 343.506 16.9844 339.588 22.4703C335.93 28.0887 333.317 36.3175 333.317 45.7233C333.317 54.998 335.93 63.3579 339.588 68.8452C343.505 74.4622 347.946 76.9443 351.997 76.9443C356.048 76.9443 360.357 74.4622 364.146 68.8452C367.802 63.3593 370.415 54.998 370.415 45.7233Z" fill="#302F2F"/>
<path d="M464.671 67.1471C464.671 71.1967 461.405 74.3315 457.356 74.3315H456.048V84.2602C456.048 88.3097 452.913 91.4445 448.866 91.4445C444.815 91.4445 441.68 88.3097 441.68 84.2602V74.3315H400.793H400.662H400.531C398.962 74.3315 397.396 73.9396 396.088 72.7641C392.822 70.2819 392.43 65.8419 394.914 62.7057L443.245 2.61468C443.376 2.61468 443.376 2.48359 443.506 2.35391C443.637 2.22283 443.768 2.09174 443.898 1.83098C444.289 1.6999 444.42 1.57021 444.552 1.43913C444.683 1.30804 444.943 1.17696 445.075 1.04728C445.335 0.916193 445.466 0.785111 445.855 0.785111C445.987 0.524349 446.118 0.393263 446.378 0.393263C446.509 0.262177 446.77 0.262175 447.163 0.131089C447.295 0.131089 447.555 0.131086 447.686 0C447.949 0 448.34 0 448.601 0C448.601 0 448.732 0 448.863 0C448.994 0 448.994 0 449.121 0C449.383 0 449.775 0 449.906 0C450.167 0.131086 450.298 0.131089 450.56 0.131089C450.691 0.262175 451.083 0.262177 451.346 0.393263C451.477 0.393263 451.737 0.524347 451.868 0.524347C452.129 0.785109 452.389 0.916194 452.52 1.04587C452.782 1.17696 452.912 1.30804 453.174 1.43772C453.174 1.43772 453.305 1.43772 453.305 1.56881C453.436 1.56881 453.697 1.69848 453.697 1.82957C453.959 2.09174 454.088 2.22142 454.22 2.35251C454.351 2.48218 454.482 2.74435 454.611 2.87403C454.743 3.00512 454.872 3.1362 455.134 3.52664C455.134 3.65773 455.265 3.91849 455.395 4.04958C455.526 4.31034 455.526 4.44142 455.657 4.83327C455.657 4.96295 455.784 5.22512 455.784 5.3548C455.915 5.61697 455.915 5.74665 455.915 6.1385C455.915 6.40067 456.046 6.53034 456.046 6.79111C456.046 6.92219 456.046 7.05187 456.046 7.18296V59.9585H457.354C461.405 59.9627 464.671 63.2286 464.671 67.1471ZM441.68 27.6958L415.683 59.9627H441.682V27.6958H441.68Z" fill="#302F2F"/>
<path d="M352.612 181.023C352.223 181.023 351.907 180.708 351.907 180.319V160.488C351.907 160.099 352.223 159.783 352.612 159.783C353.001 159.783 353.317 160.099 353.317 160.488V180.319C353.317 180.709 353.001 181.023 352.612 181.023Z" fill="#263238"/>
<path d="M316.717 190.52C316.474 190.52 316.237 190.395 316.106 190.168L306.19 172.993C305.995 172.656 306.111 172.224 306.448 172.03C306.783 171.834 307.214 171.95 307.41 172.288L317.326 189.463C317.521 189.8 317.405 190.231 317.068 190.426C316.958 190.491 316.837 190.52 316.717 190.52Z" fill="#263238"/>
<path d="M306.406 331.928C306.286 331.928 306.165 331.897 306.055 331.834C305.718 331.639 305.602 331.209 305.797 330.871L315.713 313.696C315.907 313.359 316.339 313.242 316.676 313.438C317.012 313.632 317.128 314.062 316.934 314.401L307.017 331.576C306.886 331.801 306.65 331.928 306.406 331.928Z" fill="#263238"/>
<path d="M352.154 344.308C351.765 344.308 351.449 343.992 351.449 343.603V323.771C351.449 323.382 351.765 323.066 352.154 323.066C352.543 323.066 352.859 323.382 352.859 323.771V343.603C352.859 343.992 352.545 344.308 352.154 344.308Z" fill="#263238"/>
<path d="M397.963 332.155C397.721 332.155 397.483 332.028 397.353 331.803L387.438 314.628C387.242 314.291 387.358 313.859 387.696 313.665C388.032 313.468 388.465 313.585 388.659 313.923L398.574 331.098C398.77 331.435 398.654 331.866 398.316 332.061C398.204 332.124 398.083 332.155 397.963 332.155Z" fill="#263238"/>
<path d="M388.443 190.748C388.323 190.748 388.202 190.718 388.091 190.653C387.754 190.459 387.638 190.027 387.833 189.691L397.749 172.516C397.943 172.177 398.375 172.066 398.711 172.258C399.048 172.452 399.164 172.883 398.969 173.22L389.053 190.395C388.924 190.622 388.686 190.748 388.443 190.748Z" fill="#263238"/>
</svg>
