<svg width="31" height="30" viewBox="0 0 31 30" fill="none" xmlns="http://www.w3.org/2000/svg">
<g clip-path="url(#clip0_5441_731)">
<path d="M5.5 6.25C5.5 5.91848 5.6317 5.60054 5.86612 5.36612C6.10054 5.1317 6.41848 5 6.75 5H11.75C12.0815 5 12.3995 5.1317 12.6339 5.36612C12.8683 5.60054 13 5.91848 13 6.25V11.25C13 11.5815 12.8683 11.8995 12.6339 12.1339C12.3995 12.3683 12.0815 12.5 11.75 12.5H6.75C6.41848 12.5 6.10054 12.3683 5.86612 12.1339C5.6317 11.8995 5.5 11.5815 5.5 11.25V6.25Z" stroke="white" stroke-width="1.5" stroke-linecap="round" stroke-linejoin="round"/>
<path d="M9.25 21.25V21.2625" stroke="white" stroke-width="1.5" stroke-linecap="round" stroke-linejoin="round"/>
<path d="M18 6.25C18 5.91848 18.1317 5.60054 18.3661 5.36612C18.6005 5.1317 18.9185 5 19.25 5H24.25C24.5815 5 24.8995 5.1317 25.1339 5.36612C25.3683 5.60054 25.5 5.91848 25.5 6.25V11.25C25.5 11.5815 25.3683 11.8995 25.1339 12.1339C24.8995 12.3683 24.5815 12.5 24.25 12.5H19.25C18.9185 12.5 18.6005 12.3683 18.3661 12.1339C18.1317 11.8995 18 11.5815 18 11.25V6.25Z" stroke="white" stroke-width="1.5" stroke-linecap="round" stroke-linejoin="round"/>
<path d="M9.25 8.75V8.7625" stroke="white" stroke-width="1.5" stroke-linecap="round" stroke-linejoin="round"/>
<path d="M5.5 18.75C5.5 18.4185 5.6317 18.1005 5.86612 17.8661C6.10054 17.6317 6.41848 17.5 6.75 17.5H11.75C12.0815 17.5 12.3995 17.6317 12.6339 17.8661C12.8683 18.1005 13 18.4185 13 18.75V23.75C13 24.0815 12.8683 24.3995 12.6339 24.6339C12.3995 24.8683 12.0815 25 11.75 25H6.75C6.41848 25 6.10054 24.8683 5.86612 24.6339C5.6317 24.3995 5.5 24.0815 5.5 23.75V18.75Z" stroke="white" stroke-width="1.5" stroke-linecap="round" stroke-linejoin="round"/>
<path d="M21.75 8.75V8.7625" stroke="white" stroke-width="1.5" stroke-linecap="round" stroke-linejoin="round"/>
<path d="M18 17.5H21.75" stroke="white" stroke-width="1.5" stroke-linecap="round" stroke-linejoin="round"/>
<path d="M25.5 17.5V17.5125" stroke="white" stroke-width="1.5" stroke-linecap="round" stroke-linejoin="round"/>
<path d="M18 17.5V21.25" stroke="white" stroke-width="1.5" stroke-linecap="round" stroke-linejoin="round"/>
<path d="M18 25H21.75" stroke="white" stroke-width="1.5" stroke-linecap="round" stroke-linejoin="round"/>
<path d="M21.75 21.25H25.5" stroke="white" stroke-width="1.5" stroke-linecap="round" stroke-linejoin="round"/>
<path d="M25.5 21.25V25" stroke="white" stroke-width="1.5" stroke-linecap="round" stroke-linejoin="round"/>
</g>
<defs>
<clipPath id="clip0_5441_731">
<rect width="30" height="30" fill="white" transform="translate(0.5)"/>
</clipPath>
</defs>
</svg>
