<svg width="35" height="35" viewBox="0 0 35 35" fill="none" xmlns="http://www.w3.org/2000/svg">
<g id="Vector">
<path d="M17.5 0C14.0388 0 10.6554 1.02636 7.77753 2.94928C4.89967 4.8722 2.65665 7.60533 1.33212 10.803C0.0075825 14.0007 -0.338976 17.5194 0.336265 20.9141C1.01151 24.3087 2.67822 27.4269 5.12564 29.8744C7.57306 32.3218 10.6913 33.9885 14.0859 34.6637C17.4806 35.339 20.9993 34.9924 24.197 33.6679C27.3947 32.3433 30.1278 30.1003 32.0507 27.2225C33.9736 24.3446 35 20.9612 35 17.5C34.9939 12.8606 33.1481 8.41297 29.8676 5.13242C26.587 1.85187 22.1394 0.0061485 17.5 0ZM27.2781 12.6948L16.3406 23.6323C16.2063 23.7685 16.0463 23.8767 15.8698 23.9506C15.6933 24.0245 15.5038 24.0625 15.3125 24.0625C15.1212 24.0625 14.9318 24.0245 14.7553 23.9506C14.5788 23.8767 14.4187 23.7685 14.2844 23.6323L9.18021 18.5281C8.90754 18.2554 8.75435 17.8856 8.75435 17.5C8.75435 17.1144 8.90754 16.7445 9.18021 16.4719C9.45289 16.1992 9.82272 16.046 10.2083 16.046C10.594 16.046 10.9638 16.1992 11.2365 16.4719L15.3125 20.5406L25.2219 10.6385C25.4946 10.3659 25.8644 10.2127 26.25 10.2127C26.6356 10.2127 27.0055 10.3659 27.2781 10.6385C27.5508 10.9112 27.704 11.281 27.704 11.6667C27.704 12.0523 27.5508 12.4221 27.2781 12.6948Z" fill="#28C76F"/>
<path d="M27.2781 12.6948L16.3406 23.6323C16.2063 23.7685 16.0463 23.8767 15.8698 23.9506C15.6933 24.0245 15.5038 24.0625 15.3125 24.0625C15.1212 24.0625 14.9318 24.0245 14.7553 23.9506C14.5788 23.8767 14.4187 23.7685 14.2844 23.6323L9.18021 18.5281C8.90754 18.2554 8.75435 17.8856 8.75435 17.5C8.75435 17.1144 8.90754 16.7445 9.18021 16.4719C9.45289 16.1992 9.82272 16.046 10.2083 16.046C10.594 16.046 10.9638 16.1992 11.2365 16.4719L15.3125 20.5406L25.2219 10.6385C25.4946 10.3659 25.8644 10.2127 26.25 10.2127C26.6356 10.2127 27.0055 10.3659 27.2781 10.6385C27.5508 10.9112 27.704 11.281 27.704 11.6667C27.704 12.0523 27.5508 12.4221 27.2781 12.6948Z" fill="white"/>
</g>
</svg>
