<svg width="35" height="35" viewBox="0 0 35 35" fill="none" xmlns="http://www.w3.org/2000/svg">
<path id="Vector" d="M17.5 1.07058e-06C15.2016 -0.000802973 12.9257 0.451299 10.8021 1.33047C8.67853 2.20964 6.74902 3.49865 5.12384 5.12384C3.49865 6.74902 2.20964 8.67853 1.33047 10.8021C0.451299 12.9257 -0.000802973 15.2016 1.07058e-06 17.5C-0.000802973 19.7984 0.451299 22.0744 1.33047 24.1979C2.20964 26.3215 3.49865 28.251 5.12384 29.8762C6.74902 31.5013 8.67853 32.7904 10.8021 33.6695C12.9257 34.5487 15.2016 35.0008 17.5 35C19.7984 35.0008 22.0744 34.5487 24.1979 33.6695C26.3215 32.7904 28.251 31.5013 29.8762 29.8762C31.5013 28.251 32.7904 26.3215 33.6695 24.1979C34.5487 22.0744 35.0008 19.7984 35 17.5C35.0008 15.2016 34.5487 12.9257 33.6695 10.8021C32.7904 8.67853 31.5013 6.74902 29.8762 5.12384C28.251 3.49865 26.3215 2.20964 24.1979 1.33047C22.0744 0.451299 19.7984 -0.000802973 17.5 1.07058e-06ZM17.5 30.1049C16.9767 30.1061 16.4648 29.952 16.0291 29.662C15.5935 29.372 15.2537 28.9592 15.0529 28.4759C14.8521 27.9927 14.7992 27.4607 14.901 26.9474C15.0028 26.434 15.2547 25.9625 15.6248 25.5924C15.9948 25.2224 16.4664 24.9705 16.9797 24.8687C17.493 24.7669 18.025 24.8197 18.5083 25.0206C18.9915 25.2214 19.4043 25.5612 19.6943 25.9968C19.9843 26.4324 20.1385 26.9443 20.1372 27.4677C20.1356 28.1666 19.8573 28.8365 19.363 29.3307C18.8688 29.8249 18.1989 30.1033 17.5 30.1049ZM20.7002 8.32168L19.7028 21.7832C19.6966 21.8763 19.6552 21.9635 19.587 22.0271C19.5188 22.0908 19.4289 22.1261 19.3357 22.1259H15.6643C15.5711 22.1261 15.4812 22.0908 15.413 22.0271C15.3448 21.9635 15.3034 21.8763 15.2972 21.7832L14.2998 8.32168C14.2728 7.88478 14.3355 7.44698 14.4841 7.03524C14.6327 6.6235 14.864 6.24655 15.1639 5.92761C15.4637 5.60867 15.8256 5.35451 16.2274 5.18077C16.6292 5.00703 17.0623 4.91739 17.5 4.91739C17.9377 4.91739 18.3708 5.00703 18.7726 5.18077C19.1744 5.35451 19.5363 5.60867 19.8361 5.92761C20.136 6.24655 20.3673 6.6235 20.5159 7.03524C20.6645 7.44698 20.7272 7.88478 20.7002 8.32168Z" fill="#FFC048"/>
</svg>
